<svg width="128" height="128" viewBox="0 0 128 128" fill="none" xmlns="http://www.w3.org/2000/svg">
<path d="M63.9974 70.0955C50.158 70.0955 38.3999 74.1198 30.7199 80.4276V92.1601H97.2799V80.4276C89.5999 74.1198 77.8393 70.0955 63.9974 70.0955ZM125.107 64.0743L63.8361 35.8401L2.59064 64.0743L12.7999 68.7463V75.9322C10.2399 76.4622 10.2322 77.8036 10.2322 79.3985C10.2322 80.3406 10.5446 81.4439 11.1385 82.1044L7.6364 89.6001H20.1292L16.6578 82.0993C17.2415 81.4388 17.7202 80.466 17.7202 79.5239C17.7202 77.9316 15.3599 76.4596 15.3599 75.9297V69.947L28.1599 75.6967V75.1873C35.8399 68.5083 49.3337 64.2689 63.9948 64.2689C78.661 64.2689 92.1599 68.5083 99.8399 75.1873V75.6967L125.107 64.0743Z" fill="#333333"/>
</svg>
