<svg width="1038" height="710" viewBox="0 0 1038 710" fill="none" xmlns="http://www.w3.org/2000/svg">
<path d="M801.841 616.256H149.59" stroke="#66B0F0" stroke-width="6" stroke-miterlimit="10"/>
<path d="M206.563 627.65H580.075" stroke="#66B0F0" stroke-width="6" stroke-miterlimit="10"/>
<path d="M768.231 474.875H663.915C658.978 474.875 654.967 478.743 654.967 483.505V616.256H777.157V483.505C777.179 478.743 773.168 474.875 768.231 474.875Z" fill="#D0F0E4"/>
<path d="M768.231 474.875H663.915C658.978 474.875 654.967 478.743 654.967 483.505V616.256H777.157V483.505C777.179 478.743 773.168 474.875 768.231 474.875Z" stroke="#5B4639" stroke-width="6" stroke-miterlimit="10"/>
<path d="M791.439 325.734H640.906V616.234H791.439V325.734Z" stroke="#5B4639" stroke-width="6" stroke-miterlimit="10"/>
<path d="M795.384 289.364H279.141V325.735H824.411" stroke="#5B4639" stroke-width="6" stroke-miterlimit="10"/>
<path d="M768.231 394.013H664.114C659.177 394.013 655.165 390.144 655.165 385.382V349.925C655.165 345.164 659.177 341.295 664.114 341.295H768.231C773.167 341.295 777.179 345.164 777.179 349.925V385.403C777.179 390.165 773.167 394.013 768.231 394.013Z" stroke="#5B4639" stroke-width="6" stroke-miterlimit="10"/>
<path d="M768.231 458.209H664.114C659.177 458.209 655.165 454.34 655.165 449.579V414.122C655.165 409.36 659.177 405.491 664.114 405.491H768.231C773.167 405.491 777.179 409.36 777.179 414.122V449.579C777.179 454.34 773.167 458.209 768.231 458.209Z" stroke="#5B4639" stroke-width="6" stroke-miterlimit="10"/>
<path d="M716.525 374.116C720.481 374.116 723.688 371.023 723.688 367.207C723.688 363.392 720.481 360.299 716.525 360.299C712.569 360.299 709.362 363.392 709.362 367.207C709.362 371.023 712.569 374.116 716.525 374.116Z" stroke="#66B0F0" stroke-width="6" stroke-miterlimit="10"/>
<path d="M716.525 438.504C720.481 438.504 723.688 435.411 723.688 431.595C723.688 427.78 720.481 424.687 716.525 424.687C712.569 424.687 709.362 427.78 709.362 431.595C709.362 435.411 712.569 438.504 716.525 438.504Z" stroke="#66B0F0" stroke-width="6" stroke-miterlimit="10"/>
<path d="M761.244 519.09L761.089 520.004L761.023 520.535L758.731 534.629L758.489 536.138L757.453 542.558L757.078 544.811L756.108 550.763L755.866 552.272L753.508 566.855V566.918L753.265 568.428L753.133 569.108L750.885 583.053L750.642 584.562L749.584 591.13V591.152L749.21 593.405L748.262 599.187L748.02 600.696L745.661 615.342L745.639 615.427L745.529 616.108L745.507 616.256H683.575L683.553 616.086L683.442 615.491L683.42 615.3L681.04 600.675L680.798 599.144L679.872 593.469L679.519 591.194L678.439 584.519L678.197 583.01L675.949 569.172L675.817 568.385L675.574 566.897V566.876L673.194 552.23L672.951 550.721L672.004 544.875L671.651 542.622L670.593 536.096L670.351 534.586L668.081 520.599L667.838 519.09H761.244Z" fill="white"/>
<path d="M746.102 616.915H682.98L682.715 615.342L667.023 518.431H762.037L746.102 616.915ZM684.148 615.597H744.912L760.428 519.77H668.61L684.148 615.597Z" fill="#66B0F0"/>
<path d="M762.103 519.09C762.103 519.387 762.059 519.706 761.949 520.004C761.2 522.236 757.761 524.298 752.361 525.998C751.965 526.126 751.568 526.232 751.171 526.36C747.689 527.359 743.523 528.23 738.829 528.889C738.388 528.953 737.947 529.017 737.484 529.081C733.341 529.633 728.823 530.037 724.04 530.271C723.555 530.292 723.092 530.313 722.607 530.335C719.985 530.441 717.274 530.505 714.519 530.505C712.403 530.505 710.309 530.462 708.259 530.399C707.752 530.377 707.246 530.356 706.739 530.335C701.229 530.122 696.027 529.676 691.311 529.038C690.738 528.953 690.187 528.889 689.636 528.804C681.635 527.635 675.199 525.913 671.254 523.851C668.962 522.661 667.529 521.364 667.067 520.004L666.934 519.111C666.934 512.819 688.225 507.738 714.497 507.738C740.614 507.738 761.817 512.776 762.059 519.026C762.103 519.026 762.103 519.047 762.103 519.09Z" fill="#66B0F0"/>
<path d="M745.684 615.364V616.214L745.529 616.108L745.507 616.235H744.934L737.903 607.477L737.176 606.563L730.101 597.763L729.374 596.849L722.299 588.048L721.572 587.134L714.497 578.334L713.77 577.42L706.695 568.619L705.967 567.705L698.915 558.905L698.187 557.991L691.113 549.19L690.385 548.276L683.332 539.476L682.605 538.562L675.552 529.761L674.825 528.847L668.059 520.429L667.948 519.813C668.389 521.152 669.8 522.427 672.048 523.597L675.53 527.933L676.258 528.847L683.332 537.647L684.06 538.562L691.135 547.362L691.862 548.276L698.937 557.077L699.664 557.991L706.739 566.791L707.466 567.705L714.541 576.506L715.268 577.42L722.343 586.22L723.071 587.134L730.145 595.935L730.873 596.849L737.948 605.649L738.675 606.563L745.706 615.321L745.684 615.364Z" fill="#66B0F0"/>
<path d="M748.262 599.187L748.02 600.696L745.683 597.784L744.956 596.87L737.881 588.069L737.154 587.155L730.079 578.355L729.352 577.441L722.277 568.64L721.55 567.726L714.475 558.926L713.748 558.012L706.739 549.296L706.011 548.382L698.937 539.582L698.209 538.668L691.135 529.867L690.407 528.953L690.099 528.571C690.628 528.656 691.179 528.719 691.73 528.804L691.84 528.953L698.915 537.754L699.642 538.668L706.717 547.468L707.444 548.382L714.519 557.183L715.246 558.097L722.321 566.897L723.048 567.811L730.123 576.612L730.851 577.526L737.925 586.326L738.653 587.24L745.727 596.041L746.455 596.955L748.262 599.187Z" fill="#66B0F0"/>
<path d="M750.885 583.053L750.642 584.562L745.683 578.397L744.956 577.483L737.881 568.683L737.154 567.769L730.079 558.968L729.352 558.054L722.277 549.254L721.55 548.34L714.475 539.539L713.748 538.625L706.849 530.037C707.356 530.059 707.841 530.08 708.348 530.101L714.475 537.711L715.202 538.625L722.277 547.426L723.004 548.34L730.079 557.14L730.806 558.054L737.881 566.855L738.609 567.769L745.683 576.569L746.411 577.483L750.885 583.053Z" fill="#66B0F0"/>
<path d="M753.508 566.919L753.265 568.428L752.759 567.79L745.684 558.99L744.956 558.076L737.882 549.275L737.154 548.361L730.079 539.561L729.352 538.647L722.454 530.059C722.916 530.038 723.401 530.016 723.864 529.995L730.079 537.733L730.807 538.647L737.882 547.447L738.609 548.361L745.684 557.162L746.411 558.076L753.486 566.876L753.508 566.919Z" fill="#66B0F0"/>
<path d="M699.378 615.916L698.937 616.235L698.915 616.256H698.187L691.135 607.499L690.407 606.584L683.354 597.784L682.627 596.891L679.872 593.469L679.52 591.194L683.354 595.977L684.082 596.891L691.135 605.67L691.862 606.584L698.937 615.385L699.378 615.916Z" fill="#66B0F0"/>
<path d="M683.773 615.916L683.553 616.086L683.443 615.491L683.773 615.916Z" fill="#66B0F0"/>
<path d="M714.96 615.916L714.519 616.235L714.497 616.256H713.77L706.739 607.498L706.011 606.584L698.937 597.784L698.209 596.891L691.134 588.091L690.407 587.198V587.177L683.354 578.397L682.627 577.483L675.949 569.172L675.817 568.385L675.574 566.897L676.279 567.79L683.354 576.59L684.082 577.483L691.134 586.284L691.862 587.198L698.937 595.977L699.664 596.891L706.739 605.67L707.466 606.584L714.519 615.385L714.96 615.916Z" fill="#66B0F0"/>
<path d="M730.542 615.916L730.101 616.235L730.079 616.256H729.352L722.321 607.498L721.594 606.584L714.519 597.784L713.792 596.891L706.739 588.091L706.012 587.198L698.937 578.397L698.209 577.483L691.135 568.704L690.407 567.79L683.355 558.99L682.627 558.097L675.552 549.296L674.825 548.404L672.004 544.875L671.651 542.622L675.552 547.489L676.28 548.404L683.355 557.183L684.082 558.097L691.135 566.876L691.862 567.79L698.937 576.591L699.664 577.483L706.739 586.284L707.466 587.198L714.519 595.977L715.246 596.891L722.321 605.67L723.048 606.584L730.101 615.385L730.542 615.916Z" fill="#66B0F0"/>
<path d="M756.109 550.763L755.866 552.272L753.486 549.296L752.758 548.382L745.684 539.582L744.956 538.668L737.881 529.867L737.154 528.953L737.066 528.847C737.507 528.783 737.947 528.72 738.366 528.656L738.609 528.953L745.684 537.754L746.411 538.668L753.486 547.468L754.213 548.382L756.109 550.763Z" fill="#66B0F0"/>
<path d="M758.731 534.629L758.489 536.138L753.486 529.91L752.758 528.996L750.532 526.211C750.929 526.105 751.326 525.977 751.7 525.85L753.486 528.082L754.213 528.996L758.731 534.629Z" fill="#66B0F0"/>
<path d="M761.883 519.43L761.266 520.195L761.09 519.983C761.2 519.685 761.244 519.388 761.244 519.09C761.244 519.047 761.244 519.026 761.244 518.984L761.266 518.962L761.883 519.43Z" fill="#66B0F0"/>
<path d="M757.453 542.558L757.078 544.811L754.213 548.404L753.485 549.296L746.411 558.097L745.683 558.99L738.63 567.79L737.903 568.704L730.828 577.483L730.101 578.397L723.048 587.198L722.321 588.091L715.246 596.891L714.519 597.784L707.466 606.584L706.739 607.498L699.686 616.256H698.958L698.936 616.235L698.518 615.916L698.936 615.385L706.011 606.584L706.739 605.67L713.791 596.891L714.519 595.977L721.593 587.198L722.321 586.284L729.374 577.483L730.101 576.591L737.176 567.79L737.903 566.876L744.956 558.097L745.683 557.183L752.758 548.404L753.485 547.49L757.453 542.558Z" fill="#66B0F0"/>
<path d="M761.023 520.535L754.213 529.017L753.485 529.931L746.411 538.732L745.683 539.646L738.608 548.446L737.881 549.36L730.806 558.161L730.079 559.075L723.048 567.79L722.321 568.704L715.246 577.505L714.519 578.419L707.444 587.219L706.716 588.133L699.642 596.934L698.914 597.848L691.839 606.648L691.112 607.562L684.081 616.32H683.552L683.53 616.15L683.442 615.555L683.354 615.449L683.42 615.364L690.429 606.648L691.156 605.734L698.231 596.934L698.958 596.02L706.033 587.219L706.761 586.305L713.835 577.505L714.563 576.59L721.638 567.79L722.365 566.876L729.44 558.076L730.167 557.161L737.242 548.361L737.969 547.447L745.044 538.646L745.771 537.732L752.824 528.932L753.551 528.018L757.012 523.703C759.282 522.534 760.715 521.258 761.177 519.898L761.023 520.535Z" fill="#66B0F0"/>
<path d="M738.917 528.635L738.608 529.017L737.881 529.931L730.806 538.732L730.079 539.646L723.004 548.446L722.277 549.36L715.202 558.161L714.475 559.075L707.4 567.875L706.672 568.789L699.598 577.59L698.87 578.504L691.796 587.304L691.068 588.218L683.993 597.019L683.266 597.933L680.952 600.803L680.709 599.293L682.539 597.019L683.266 596.105L690.319 587.304L691.046 586.39L698.121 577.59L698.848 576.676L705.901 567.875L706.628 566.961L713.703 558.161L714.431 557.247L721.505 548.446L722.233 547.532L729.307 538.732L730.035 537.818L737.11 529.017L737.22 528.868C737.594 528.826 737.969 528.762 738.322 528.72C738.564 528.677 738.741 528.656 738.917 528.635Z" fill="#66B0F0"/>
<path d="M722.145 530.123L715.246 538.689L714.519 539.603L707.444 548.404L706.717 549.318L699.642 558.118L698.915 559.032L691.84 567.833L691.112 568.747L684.038 577.547L683.31 578.461L678.395 584.583L678.153 583.074L682.583 577.547L683.31 576.633L690.385 567.833L691.112 566.919L698.187 558.118L698.915 557.204L705.989 548.404L706.717 547.49L713.792 538.689L714.519 537.775L720.646 530.165C721.131 530.165 721.638 530.144 722.145 530.123Z" fill="#66B0F0"/>
<path d="M749.584 591.152L749.21 593.405L746.411 596.891L745.683 597.784L738.631 606.584L737.903 607.498L730.85 616.256H730.123L730.101 616.235L729.682 615.916L730.101 615.385L737.176 606.584L737.903 605.67L744.956 596.891L745.683 595.977L749.584 591.152Z" fill="#66B0F0"/>
<path d="M753.133 569.108L746.411 577.483L745.683 578.397L738.631 587.198L737.903 588.091L730.828 596.891L730.101 597.784L723.048 606.584L722.321 607.498L715.268 616.256H714.541L714.519 616.235L714.1 615.916L714.519 615.385L721.594 606.584L722.321 605.67L729.374 596.891L730.101 595.977L737.176 587.198L737.903 586.284L744.956 577.483L745.683 576.59L752.758 567.79L753.486 566.876L753.508 566.855V566.918L753.265 568.428L753.133 569.108Z" fill="#66B0F0"/>
<path d="M706.562 530.101L699.664 538.689L698.937 539.603L691.862 548.404L691.135 549.318L684.06 558.118L683.332 559.032L676.258 567.833L675.795 568.428L675.552 566.961L675.53 566.94L675.552 566.919L682.605 558.14L683.332 557.226L690.385 548.425L691.113 547.511L698.187 538.71L698.915 537.796L705.13 530.059C705.637 530.059 706.1 530.08 706.562 530.101Z" fill="#66B0F0"/>
<path d="M691.972 528.89L691.884 529.017L691.156 529.931L684.081 538.732L683.354 539.646L676.279 548.446L675.552 549.36L673.194 552.294L672.951 550.784L674.825 548.446L675.552 547.532L682.605 538.732L683.332 537.818L690.407 529.017L690.649 528.719C691.002 528.762 691.377 528.826 691.751 528.868L691.972 528.89Z" fill="#66B0F0"/>
<path d="M678.527 526.211L676.279 528.996L675.552 529.91L670.571 536.096L670.329 534.586L674.825 528.996L675.552 528.082L677.359 525.85C677.734 525.977 678.131 526.105 678.527 526.211Z" fill="#66B0F0"/>
<path d="M765.784 506.612H745.441V500.639H757.783C761.64 500.639 764.858 503.19 765.784 506.612Z" fill="white" stroke="#5B4639" stroke-width="5" stroke-miterlimit="10"/>
<path d="M757.916 500.639C752.141 500.702 747.094 504.422 745.551 509.8L740.857 526.232C740.195 526.339 739.512 526.445 738.829 526.53C738.388 526.594 737.947 526.657 737.484 526.721C733.341 527.274 728.823 527.678 724.04 527.912C723.555 527.933 723.092 527.954 722.607 527.975C719.985 528.082 717.274 528.145 714.519 528.145C712.403 528.145 710.309 528.103 708.259 528.039C707.752 528.018 707.246 527.997 706.739 527.975C706.54 527.975 706.342 527.954 706.144 527.954L711.345 509.8C712.888 504.38 718.001 500.639 723.842 500.639H757.916Z" fill="white" stroke="#5B4639" stroke-width="5" stroke-miterlimit="10"/>
<path d="M743.986 146.431L796.023 289.364H605.465L656.113 146.431H743.986Z" fill="#5B4639"/>
<path d="M700.458 129.404C700.458 123.452 705.461 118.626 711.632 118.626H718.089C724.261 118.626 729.264 123.452 729.264 129.404V268.872" stroke="#66B0F0" stroke-width="6" stroke-miterlimit="10"/>
<path d="M744.273 284.815V289.13H697.151V284.815C697.151 281.137 698.452 277.736 700.634 275.036C703.653 271.295 708.392 268.872 713.681 268.872H727.721C727.941 268.872 728.184 268.872 728.404 268.893C737.242 269.233 744.273 276.227 744.273 284.815Z" fill="white" stroke="#FE5244" stroke-width="6" stroke-miterlimit="10"/>
<path d="M754.742 147.026H645.71V143.731C645.71 135.844 652.344 129.467 660.499 129.467H739.953C748.13 129.467 754.742 135.866 754.742 143.731V147.026Z" fill="#FE5244"/>
<path d="M754.742 144.39H645.71" stroke="white" stroke-width="5" stroke-miterlimit="10" stroke-linecap="round"/>
<path d="M743.347 147.026C743.347 150.788 740.923 153.849 737.903 153.849H661.601C658.603 153.849 656.157 150.788 656.157 147.026H743.347Z" fill="white"/>
<path d="M729.264 273.038C729.264 279.862 722.806 285.41 714.85 285.41C707.687 285.41 701.736 280.925 700.634 275.036C703.653 271.295 708.392 268.872 713.681 268.872H727.721C727.941 268.872 728.184 268.872 728.404 268.893C728.977 270.19 729.264 271.593 729.264 273.038Z" fill="white" stroke="#FE5244" stroke-width="6" stroke-miterlimit="10"/>
<path d="M715.246 265.959V272.634C715.246 273.995 713.946 275.1 712.359 275.1C710.772 275.1 709.472 273.995 709.472 272.634V265.959H709.516C709.78 267.129 710.948 268.021 712.337 268.021C713.725 268.021 714.894 267.129 715.158 265.959H715.246Z" fill="#FE5244"/>
<path d="M714.629 265.725C714.629 265.874 714.607 266.023 714.585 266.172C714.387 267.235 713.461 268.021 712.337 268.021C711.235 268.021 710.309 267.235 710.089 266.172C710.067 266.023 710.045 265.874 710.045 265.725C710.045 264.45 711.059 263.43 712.337 263.43C713.593 263.43 714.629 264.471 714.629 265.725Z" fill="white" stroke="#FE5244" stroke-width="6" stroke-miterlimit="10"/>
<path d="M639.561 192.474H632.023V289.364H639.561V192.474Z" fill="#3FB1B5"/>
<path d="M628.872 289.364H615.956C614.59 289.364 613.488 288.301 613.488 286.983V214.964C613.488 213.646 614.59 212.583 615.956 212.583H628.872C630.238 212.583 631.34 213.646 631.34 214.964V286.983C631.34 288.301 630.238 289.364 628.872 289.364Z" fill="white" stroke="#5B4639" stroke-width="5" stroke-miterlimit="10"/>
<path d="M670.417 287.812H655.584C654.504 287.812 653.579 287.068 653.38 286.048L640.068 219.343C639.804 218.003 640.861 216.771 642.272 216.771H657.105C658.185 216.771 659.111 217.515 659.309 218.535L672.621 285.24C672.886 286.579 671.828 287.812 670.417 287.812Z" stroke="#66B0F0" stroke-width="6" stroke-miterlimit="10"/>
<path d="M610.534 289.364H540.667C539.036 289.364 537.714 288.088 537.714 286.515V272.719C537.714 271.146 539.036 269.871 540.667 269.871H610.534C612.165 269.871 613.487 271.146 613.487 272.719V286.515C613.487 288.088 612.165 289.364 610.534 289.364Z" fill="#FE5244"/>
<path d="M348.897 52.8992V96.859C348.897 105.468 341.646 112.462 332.72 112.462H282.182C291.108 112.462 298.36 105.489 298.36 96.859V52.8992H348.897Z" fill="white" stroke="#5B4639" stroke-width="5" stroke-miterlimit="10"/>
<path d="M325.557 48.6477H321.479V58.0221H325.557V48.6477Z" fill="#FE5244"/>
<path d="M334.197 69.6074C333.624 69.6074 333.051 69.3948 332.588 68.9909L330.891 67.5455C330.362 67.0991 329.656 67.0991 329.127 67.5455L327.519 68.9272C326.571 69.7349 325.248 69.7349 324.279 68.9272L322.802 67.673C322.273 67.2266 321.568 67.2266 321.039 67.673L319.672 68.8421C318.725 69.6499 317.402 69.6499 316.432 68.8421L315.308 67.8856C314.779 67.4392 314.074 67.4392 313.545 67.8856L312.333 68.9272C311.385 69.7349 310.063 69.7349 309.093 68.9272L307.969 67.9706C307.44 67.5242 306.735 67.5242 306.206 67.9706C305.985 68.1619 305.633 68.1407 305.434 67.9281C305.236 67.7155 305.258 67.3754 305.479 67.1841C306.426 66.3763 307.749 66.3763 308.718 67.1841L309.842 68.1407C310.371 68.5871 311.077 68.5871 311.606 68.1407L312.818 67.0991C313.766 66.2913 315.088 66.2913 316.058 67.0991L317.182 68.0556C317.711 68.502 318.416 68.502 318.945 68.0556L320.311 66.8865C321.259 66.0787 322.582 66.0787 323.551 66.8865L325.028 68.1407C325.557 68.5871 326.262 68.5871 326.791 68.1407L328.4 66.7589C329.348 65.9512 330.67 65.9512 331.64 66.7589L333.337 68.2044C333.866 68.6508 334.571 68.6508 335.1 68.2044L336.863 66.6952C337.811 65.8874 339.134 65.8874 340.103 66.6952C340.324 66.8865 340.346 67.2266 340.147 67.4392C339.949 67.6517 339.596 67.673 339.376 67.4817C338.847 67.0353 338.142 67.0353 337.613 67.4817L335.85 68.9909C335.321 69.3948 334.77 69.6074 334.197 69.6074Z" fill="#5B4639"/>
<path d="M334.197 78.3442C333.624 78.3442 333.051 78.1316 332.588 77.7278L330.891 76.2823C330.362 75.8359 329.656 75.8359 329.127 76.2823L327.519 77.664C326.571 78.4718 325.248 78.4718 324.279 77.664L322.802 76.4098C322.273 75.9634 321.568 75.9634 321.039 76.4098L319.672 77.579C318.725 78.3867 317.402 78.3867 316.432 77.579L315.308 76.6224C314.779 76.176 314.074 76.176 313.545 76.6224L312.333 77.664C311.385 78.4718 310.063 78.4718 309.093 77.664L307.969 76.7074C307.44 76.261 306.735 76.261 306.206 76.7074C305.985 76.8987 305.633 76.8775 305.434 76.6649C305.236 76.4523 305.258 76.1122 305.479 75.9209C306.426 75.1131 307.749 75.1131 308.718 75.9209L309.842 76.8775C310.371 77.3239 311.077 77.3239 311.606 76.8775L312.818 75.8359C313.766 75.0281 315.088 75.0281 316.058 75.8359L317.182 76.7925C317.711 77.2389 318.416 77.2389 318.945 76.7925L320.311 75.6233C321.259 74.8155 322.582 74.8155 323.551 75.6233L325.028 76.8775C325.557 77.3239 326.262 77.3239 326.791 76.8775L328.4 75.4958C329.348 74.688 330.67 74.688 331.64 75.4958L333.337 76.9413C333.866 77.3877 334.571 77.3877 335.1 76.9413L336.863 75.432C337.811 74.6242 339.134 74.6242 340.103 75.432C340.324 75.6233 340.346 75.9634 340.147 76.176C339.949 76.3886 339.596 76.4098 339.376 76.2185C338.847 75.7721 338.142 75.7721 337.613 76.2185L335.85 77.7278C335.321 78.1529 334.77 78.3442 334.197 78.3442Z" fill="#5B4639"/>
<path d="M334.197 87.0808C333.624 87.0808 333.051 86.8682 332.588 86.4643L330.891 85.0189C330.362 84.5725 329.656 84.5725 329.127 85.0189L327.519 86.4006C326.571 87.2083 325.248 87.2083 324.279 86.4006L322.802 85.1464C322.273 84.7 321.568 84.7 321.039 85.1464L319.672 86.3155C318.725 87.1233 317.402 87.1233 316.432 86.3155L315.308 85.359C314.779 84.9126 314.074 84.9126 313.545 85.359L312.333 86.4006C311.385 87.2083 310.063 87.2083 309.093 86.4006L307.969 85.444C307.44 84.9976 306.735 84.9976 306.206 85.444C305.985 85.6353 305.633 85.614 305.434 85.4015C305.236 85.1889 305.258 84.8488 305.479 84.6575C306.426 83.8497 307.749 83.8497 308.718 84.6575L309.842 85.614C310.371 86.0604 311.077 86.0604 311.606 85.614L312.818 84.5724C313.766 83.7647 315.088 83.7647 316.058 84.5724L317.182 85.529C317.711 85.9754 318.416 85.9754 318.945 85.529L320.311 84.3599C321.259 83.5521 322.582 83.5521 323.551 84.3599L325.028 85.614C325.557 86.0604 326.262 86.0604 326.791 85.614L328.4 84.2323C329.348 83.4246 330.67 83.4246 331.64 84.2323L333.337 85.6778C333.866 86.1242 334.571 86.1242 335.1 85.6778L336.863 84.1686C337.811 83.3608 339.134 83.3608 340.103 84.1686C340.324 84.3599 340.346 84.7 340.147 84.9126C339.949 85.1251 339.596 85.1464 339.376 84.9551C338.847 84.5087 338.142 84.5087 337.613 84.9551L335.85 86.4643C335.321 86.8895 334.77 87.0808 334.197 87.0808Z" fill="#5B4639"/>
<path d="M334.197 95.8386C333.624 95.8386 333.051 95.6261 332.588 95.2222L330.891 93.7767C330.362 93.3303 329.656 93.3303 329.127 93.7767L327.519 95.1584C326.571 95.9662 325.248 95.9662 324.279 95.1584L322.802 93.9042C322.273 93.4578 321.568 93.4578 321.039 93.9042L319.672 95.0734C318.725 95.8812 317.402 95.8812 316.432 95.0734L315.308 94.1168C314.779 93.6704 314.074 93.6704 313.545 94.1168L312.333 95.1584C311.385 95.9662 310.063 95.9662 309.093 95.1584L307.969 94.2018C307.44 93.7554 306.735 93.7554 306.206 94.2018C305.985 94.3931 305.633 94.3719 305.434 94.1593C305.236 93.9467 305.258 93.6066 305.479 93.4153C306.426 92.6075 307.749 92.6075 308.718 93.4153L309.842 94.3719C310.371 94.8183 311.077 94.8183 311.606 94.3719L312.818 93.3303C313.766 92.5225 315.088 92.5225 316.058 93.3303L317.182 94.2869C317.711 94.7333 318.416 94.7333 318.945 94.2869L320.311 93.1177C321.259 92.3099 322.582 92.3099 323.551 93.1177L325.028 94.3719C325.557 94.8183 326.262 94.8183 326.791 94.3719L328.4 92.9902C329.348 92.1824 330.67 92.1824 331.64 92.9902L333.337 94.4357C333.866 94.8821 334.571 94.8821 335.1 94.4357L336.863 92.9264C337.811 92.1186 339.134 92.1186 340.103 92.9264C340.324 93.1177 340.346 93.4578 340.147 93.6704C339.949 93.883 339.596 93.9042 339.376 93.7129C338.847 93.2665 338.142 93.2665 337.613 93.7129L335.85 95.2222C335.321 95.6261 334.77 95.8386 334.197 95.8386Z" fill="#5B4639"/>
<path d="M400.934 52.8992H365.582V86.9956H400.934V52.8992Z" fill="#66B0F0"/>
<path d="M373.352 51.4411L370.789 48.3823L361.447 55.6647L364.01 58.7235L373.352 51.4411Z" fill="#5B4639"/>
<path d="M402.768 58.7194L405.331 55.6606L395.988 48.3782L393.425 51.437L402.768 58.7194Z" fill="#5B4639"/>
<path d="M393.462 60.9768H372.017V62.2523H393.462V60.9768Z" fill="white"/>
<path d="M393.462 66.4824H372.017V67.7579H393.462V66.4824Z" fill="white"/>
<path d="M393.462 72.0095H372.017V73.285H393.462V72.0095Z" fill="white"/>
<path d="M393.462 77.5149H372.017V78.7903H393.462V77.5149Z" fill="white"/>
<path d="M536.061 289.364H453.654L469.611 255.352L471.947 250.357H517.768L524.204 264.068L536.061 289.364Z" fill="white" stroke="#66B0F0" stroke-width="6" stroke-miterlimit="10"/>
<path d="M524.204 264.068L469.611 255.352L471.947 250.357H517.768L524.204 264.068Z" fill="#66B0F0"/>
<path d="M591.977 250.357H398.003C390.884 250.357 385.131 244.787 385.131 237.943V115.82C385.131 108.954 390.906 103.406 398.003 103.406H591.977C599.096 103.406 604.848 108.976 604.848 115.82V237.921C604.848 244.787 599.074 250.357 591.977 250.357Z" fill="white" stroke="#66B0F0" stroke-width="6" stroke-miterlimit="10"/>
<path d="M533.857 241.726H456.1C452.309 241.726 449.246 238.772 449.246 235.116V226.039C449.246 222.382 452.309 219.428 456.1 219.428H533.857C537.648 219.428 540.712 222.382 540.712 226.039V235.116C540.712 238.772 537.626 241.726 533.857 241.726Z" fill="#66B0F0"/>
<path d="M513.448 235.668H508.202C506.902 235.668 505.844 234.648 505.844 233.394V229.44C505.844 228.186 506.902 227.165 508.202 227.165H513.448C514.748 227.165 515.806 228.186 515.806 229.44V233.394C515.806 234.648 514.748 235.668 513.448 235.668Z" fill="white"/>
<path d="M520.126 235.009L518.187 233.819C517.658 233.5 517.327 232.926 517.327 232.31V230.524C517.327 229.908 517.658 229.334 518.187 229.015L520.126 227.824C520.589 227.548 521.184 227.867 521.184 228.377V234.435C521.206 234.967 520.589 235.286 520.126 235.009Z" fill="white"/>
<path d="M493.568 233.67H493.083C491.166 233.67 489.601 232.161 489.601 230.311V228.334C489.601 228.164 489.755 228.016 489.931 228.016H496.698C496.874 228.016 497.028 228.164 497.028 228.334V230.311C497.05 232.161 495.486 233.67 493.568 233.67ZM490.262 228.653V230.311C490.262 231.799 491.518 233.032 493.083 233.032H493.568C495.111 233.032 496.389 231.821 496.389 230.311V228.653H490.262Z" fill="white"/>
<path d="M493.326 237.347C493.149 237.347 492.995 237.199 492.995 237.029V234.626C492.995 234.456 493.149 234.308 493.326 234.308C493.502 234.308 493.656 234.456 493.656 234.626V237.029C493.656 237.199 493.502 237.347 493.326 237.347Z" fill="white"/>
<path d="M495.067 237.348H491.607C491.43 237.348 491.276 237.199 491.276 237.029C491.276 236.859 491.43 236.71 491.607 236.71H495.067C495.243 236.71 495.398 236.859 495.398 237.029C495.398 237.199 495.243 237.348 495.067 237.348Z" fill="white"/>
<path d="M493.479 232.182H493.171C492.069 232.182 491.187 231.332 491.187 230.269V226.4C491.187 225.337 492.069 224.487 493.171 224.487H493.479C494.581 224.487 495.463 225.337 495.463 226.4V230.269C495.463 231.332 494.581 232.182 493.479 232.182Z" fill="white"/>
<path d="M473.203 229.78L473.181 229.801C472.762 230.29 472.895 231.034 473.446 231.48L475.473 233.053C476.024 233.479 476.818 233.436 477.236 232.947L477.258 232.926C477.677 232.437 478.471 232.416 479 232.862L480.829 234.456C481.402 234.967 481.402 235.817 480.829 236.199C478.911 237.496 476.421 237.029 474.371 235.434L471.286 233.032C469.236 231.417 468.244 229.163 469.148 227.08C469.434 226.442 470.294 226.272 470.911 226.719L472.917 228.122C473.468 228.547 473.6 229.291 473.203 229.78Z" fill="white"/>
<path d="M478.581 231.013C478.405 231.013 478.272 230.885 478.25 230.715C478.14 229.185 476.774 228.016 475.187 228.122C475.01 228.122 474.856 227.994 474.834 227.824C474.812 227.654 474.966 227.505 475.143 227.484C477.104 227.357 478.779 228.802 478.911 230.673C478.933 230.843 478.801 230.992 478.581 231.013C478.603 231.013 478.603 231.013 478.581 231.013Z" fill="white"/>
<path d="M480.653 230.694C480.476 230.694 480.344 230.567 480.322 230.397C480.234 229.121 479.639 227.931 478.625 227.08C477.611 226.23 476.333 225.805 475.011 225.89C474.834 225.89 474.68 225.762 474.658 225.592C474.636 225.422 474.79 225.274 474.966 225.252C476.465 225.167 477.92 225.635 479.066 226.591C480.212 227.548 480.873 228.887 480.983 230.333C481.005 230.545 480.851 230.694 480.653 230.694C480.675 230.694 480.675 230.694 480.653 230.694Z" fill="white"/>
<path d="M555.192 114.906C556.458 114.906 557.484 113.917 557.484 112.696C557.484 111.475 556.458 110.485 555.192 110.485C553.926 110.485 552.899 111.475 552.899 112.696C552.899 113.917 553.926 114.906 555.192 114.906Z" stroke="#5B4639" stroke-width="5" stroke-miterlimit="10"/>
<path d="M564.559 114.906C565.825 114.906 566.851 113.917 566.851 112.696C566.851 111.475 565.825 110.485 564.559 110.485C563.293 110.485 562.267 111.475 562.267 112.696C562.267 113.917 563.293 114.906 564.559 114.906Z" stroke="#5B4639" stroke-width="5" stroke-miterlimit="10"/>
<path d="M573.948 114.906C575.214 114.906 576.24 113.917 576.24 112.696C576.24 111.475 575.214 110.485 573.948 110.485C572.682 110.485 571.656 111.475 571.656 112.696C571.656 113.917 572.682 114.906 573.948 114.906Z" stroke="#5B4639" stroke-width="5" stroke-miterlimit="10"/>
<path d="M486.824 213.986H417.75C415.634 213.986 413.937 212.328 413.937 210.308V174.639C413.937 172.598 415.657 170.961 417.75 170.961H486.824C488.939 170.961 490.637 172.619 490.637 174.639V210.308C490.637 212.328 488.939 213.986 486.824 213.986Z" stroke="#66B0F0" stroke-width="6" stroke-miterlimit="10"/>
<path d="M573.948 213.986H504.875C502.759 213.986 501.062 212.328 501.062 210.308V174.639C501.062 172.598 502.781 170.961 504.875 170.961H573.948C576.064 170.961 577.761 172.619 577.761 174.639V210.308C577.761 212.328 576.064 213.986 573.948 213.986Z" fill="#3FB1B5"/>
<path d="M560.9 213.88H515.762C520.324 208.459 527.289 204.973 535.091 204.973H541.571C549.373 204.994 556.338 208.459 560.9 213.88Z" fill="#FE5244"/>
<path d="M536.92 204.994C536.48 208.204 533.637 210.67 530.198 210.67C527.664 210.67 525.46 209.331 524.292 207.354C527.553 205.844 531.212 204.994 535.069 204.994H536.92Z" fill="white"/>
<path d="M550.255 206.482C549.263 208.927 546.817 210.649 543.93 210.649C540.491 210.649 537.648 208.183 537.207 204.973H541.593C544.635 204.994 547.544 205.504 550.255 206.482Z" fill="white"/>
<path d="M545.296 195.514V205.164C545.296 206.674 542.166 207.885 538.331 207.885C537.626 207.885 536.943 207.843 536.304 207.779C533.438 207.439 531.367 206.397 531.367 205.164V195.514H545.296Z" fill="#FFE6CF"/>
<path d="M544.37 197.49C544.37 201.678 540.579 206.759 536.304 207.758C533.438 207.417 531.367 206.376 531.367 205.143V195.492H544.15L544.37 197.49Z" fill="#5B4639"/>
<path d="M548.866 194.281V194.514C548.866 196.151 547.478 197.49 545.781 197.49H542.827C541.483 200.275 538.552 202.188 535.157 202.188H534.584C530.794 202.188 527.73 199.233 527.73 195.577V188.754C532.116 189.03 537.692 185.331 537.692 185.331C539.521 192.155 544.745 192.07 547.169 191.623C548.161 192.112 548.866 193.133 548.866 194.281Z" fill="#FFE6CF"/>
<path d="M544.524 195.322C544.348 195.322 544.194 195.173 544.194 195.003C544.194 193.643 545.34 192.538 546.751 192.538C546.927 192.538 547.081 192.686 547.081 192.856C547.081 193.027 546.927 193.175 546.751 193.175C545.715 193.175 544.855 193.983 544.855 195.003C544.855 195.173 544.701 195.322 544.524 195.322Z" fill="#5B4639"/>
<path d="M545.296 197.49H545.781C547.478 197.49 548.866 196.151 548.866 194.514V194.281C548.866 193.111 548.183 192.112 547.169 191.623C546.508 191.751 545.604 191.836 544.635 191.772C542.122 191.581 539.014 190.263 537.692 185.331C537.692 185.331 532.116 189.03 527.73 188.754C526.914 188.711 526.143 188.52 525.46 188.137C521.823 186.139 530.617 176.786 540.711 178.189C548.778 179.316 548.602 188.626 548.447 190.837C548.844 190.794 549.241 190.773 549.638 190.773C555.544 190.773 560.327 195.152 560.327 200.573C560.327 204.101 558.299 207.205 555.236 208.927C552.304 207.056 548.932 205.781 545.296 205.249V197.49Z" fill="#5B4639"/>
<path d="M532.182 195.556C532.138 195.556 532.094 195.556 532.072 195.535C531.895 195.471 531.807 195.28 531.873 195.131C531.873 195.11 532.535 193.388 531.433 191.538C530.485 189.944 528.391 190.22 528.303 190.242C528.127 190.263 527.95 190.157 527.928 189.965C527.906 189.795 528.016 189.625 528.215 189.604C528.325 189.583 530.838 189.243 532.028 191.219C533.284 193.324 532.535 195.28 532.513 195.343C532.424 195.471 532.314 195.556 532.182 195.556Z" fill="#5B4639"/>
<path d="M539.698 191.517C539.632 191.517 539.565 191.496 539.499 191.453C537.582 190.029 535.025 190.199 535.003 190.199C534.827 190.22 534.673 190.072 534.651 189.902C534.629 189.732 534.783 189.583 534.959 189.562C535.069 189.562 537.78 189.37 539.896 190.943C540.05 191.05 540.072 191.241 539.962 191.39C539.874 191.475 539.786 191.517 539.698 191.517Z" fill="#5B4639"/>
<path d="M531.036 196.279C531.036 196.279 531.565 199.637 535.157 196.364C535.157 196.364 532.645 196.683 531.036 196.279Z" fill="white"/>
<path d="M536.568 193.452C536.824 193.452 537.031 193.004 537.031 192.452C537.031 191.901 536.824 191.453 536.568 191.453C536.312 191.453 536.105 191.901 536.105 192.452C536.105 193.004 536.312 193.452 536.568 193.452Z" fill="#5B4639"/>
<path d="M529.691 193.282C529.911 193.282 530.088 192.91 530.088 192.453C530.088 191.995 529.911 191.624 529.691 191.624C529.472 191.624 529.295 191.995 529.295 192.453C529.295 192.91 529.472 193.282 529.691 193.282Z" fill="#5B4639"/>
<path d="M573.088 165.243H504.015C501.899 165.243 500.202 163.585 500.202 161.566V125.896C500.202 123.856 501.921 122.219 504.015 122.219H573.088C575.204 122.219 576.901 123.877 576.901 125.896V161.566C576.901 163.585 575.182 165.243 573.088 165.243Z" fill="#66B0F0"/>
<path d="M559.027 165.243H516.864C521.118 159.78 527.62 156.294 534.915 156.294H540.976C548.271 156.294 554.773 159.78 559.027 165.243Z" fill="#5B4639"/>
<path d="M535.709 163.415H536.656C540.778 163.415 544.128 160.184 544.128 156.209V151.086C544.128 151.065 544.106 151.043 544.084 151.043H530.221C530.199 151.043 530.177 151.065 530.177 151.086V158.122C530.199 161.056 532.667 163.415 535.709 163.415Z" fill="white"/>
<path d="M530.198 151.043V157.952C530.198 158.037 530.198 158.143 530.198 158.228C530.397 162.182 540.601 160.63 543.665 151.043H530.198Z" fill="#5B4639"/>
<path d="M548.161 147.961C548.161 148.811 547.809 149.577 547.214 150.15C546.641 150.703 545.847 151.043 544.943 151.043H541.924C540.844 153.807 538.067 155.762 534.827 155.762H532.469C529.185 155.762 526.54 153.19 526.54 150.044V141.116C529.934 141.393 532.799 138.757 532.909 138.65C532.865 138.799 531.146 143.476 535.047 143.731C538.926 143.986 540.205 141.286 540.249 141.18C540.249 141.286 540.271 144.9 543.335 145.091H544.943C546.729 145.091 548.161 146.26 548.161 147.961Z" fill="white"/>
<path d="M543.621 145.091H543.555C543.489 145.091 543.423 145.091 543.357 145.091C540.293 144.9 540.271 141.308 540.271 141.18C540.227 141.286 538.927 143.986 535.07 143.731C531.19 143.476 532.888 138.799 532.932 138.65C532.821 138.736 529.956 141.393 526.562 141.116C525.813 141.053 525.063 140.861 524.292 140.457C519.333 137.864 522.529 132.528 527.4 132.465C531.279 132.422 532.932 134.463 532.932 134.463C532.932 134.463 533.769 130.275 538.53 130.998C543.291 131.721 542.431 135.781 542.431 135.781C542.431 135.781 546.42 133.995 548.624 137.29C551.225 141.159 547.324 145.091 543.621 145.091Z" fill="#FE5244"/>
<path d="M530.596 148.981C530.573 148.981 530.551 148.981 530.507 148.981C530.331 148.939 530.221 148.769 530.265 148.599C530.265 148.578 530.794 146.473 529.846 144.751C528.81 142.923 527.025 143.221 526.959 143.221C526.783 143.242 526.606 143.136 526.584 142.966C526.54 142.796 526.672 142.626 526.849 142.604C526.871 142.604 529.185 142.2 530.441 144.454C531.521 146.388 530.948 148.663 530.926 148.748C530.86 148.875 530.728 148.981 530.596 148.981Z" fill="#5B4639"/>
<path d="M531.763 151.447C531.3 151.447 530.882 151.384 530.573 151.299C530.397 151.256 530.287 151.086 530.331 150.916C530.375 150.746 530.551 150.64 530.727 150.682C530.838 150.703 533.35 151.341 534.276 149.47C534.364 149.322 534.54 149.237 534.717 149.322C534.893 149.407 534.959 149.577 534.871 149.747C534.232 151.086 532.887 151.447 531.763 151.447Z" fill="#5B4639"/>
<path d="M534.959 146.431C535.215 146.431 535.422 145.983 535.422 145.431C535.422 144.88 535.215 144.432 534.959 144.432C534.704 144.432 534.496 144.88 534.496 145.431C534.496 145.983 534.704 146.431 534.959 146.431Z" fill="#5B4639"/>
<path d="M528.105 146.261C528.324 146.261 528.501 145.889 528.501 145.432C528.501 144.974 528.324 144.603 528.105 144.603C527.886 144.603 527.708 144.974 527.708 145.432C527.708 145.889 527.886 146.261 528.105 146.261Z" fill="#5B4639"/>
<path d="M543.29 149.13C543.114 149.13 542.96 148.981 542.96 148.811C542.96 147.451 544.106 146.345 545.516 146.345C545.693 146.345 545.847 146.494 545.847 146.664C545.847 146.834 545.693 146.983 545.516 146.983C544.481 146.983 543.621 147.791 543.621 148.811C543.621 148.981 543.467 149.13 543.29 149.13Z" fill="#5B4639"/>
<path d="M485.942 165.243H416.869C414.753 165.243 413.056 163.585 413.056 161.566V125.896C413.056 123.856 414.775 122.219 416.869 122.219H485.942C488.058 122.219 489.755 123.877 489.755 125.896V161.566C489.777 163.585 488.058 165.243 485.942 165.243Z" fill="#5B4639"/>
<path d="M469.258 165.243H426.412C430.732 159.015 437.344 155.04 444.749 155.04H450.92C458.326 155.04 464.916 159.015 469.258 165.243Z" fill="white"/>
<path d="M469.258 165.243H426.412C426.544 165.052 426.676 164.882 426.809 164.69C426.831 164.648 426.853 164.605 426.897 164.584H468.795C468.817 164.626 468.839 164.648 468.883 164.69C468.993 164.86 469.125 165.052 469.258 165.243Z" fill="#FEB040"/>
<path d="M467.45 162.926H428.219C428.418 162.692 428.616 162.479 428.814 162.267H466.855C467.054 162.479 467.252 162.692 467.45 162.926Z" fill="#FEB040"/>
<path d="M465.026 160.503H430.644C430.908 160.269 431.173 160.056 431.437 159.844H464.233C464.497 160.056 464.762 160.269 465.026 160.503Z" fill="#FEB040"/>
<path d="M461.323 157.846H434.324C434.721 157.612 435.14 157.399 435.559 157.187H460.067C460.508 157.399 460.905 157.612 461.323 157.846Z" fill="#FEB040"/>
<path d="M454.667 147.088V156.59C454.667 157.568 451.538 158.354 447.703 158.354C443.956 158.354 440.892 157.61 440.738 156.654C440.738 156.632 440.738 156.611 440.738 156.59V147.088H454.667Z" fill="#E57281"/>
<path d="M454.578 147.089V147.302C454.578 151.979 448.561 157.335 444.219 157.952C443.536 158.058 441.42 157.654 440.759 156.634C440.759 156.613 440.759 156.591 440.759 156.57V147.068H454.578V147.089Z" fill="#9A3B82"/>
<path d="M458.458 144.092V144.305C458.458 145.941 457.07 147.281 455.373 147.281H452.706C451.846 150.257 449.025 152.425 445.675 152.425H442.832C439.68 152.425 437.101 149.959 437.101 146.898V134.803C442.391 136.227 451.846 134.888 451.846 134.888C451.846 134.888 450.987 137.864 452.618 141.095H455.395C457.07 141.116 458.458 142.455 458.458 144.092Z" fill="#E57281"/>
<path d="M455.262 140.734H452.75C450.612 137.247 451.824 134.93 451.824 134.93C451.824 134.93 442.369 136.248 437.079 134.845C434.677 134.208 433.134 132.996 433.707 130.849C435.537 123.962 455.24 131.295 456.607 133.783C457.995 136.27 455.262 140.734 455.262 140.734Z" fill="white" stroke="#FEB040" stroke-width="4" stroke-miterlimit="10"/>
<path d="M445.477 147.259C445.41 147.323 445.344 147.344 445.256 147.344C445.168 147.344 445.08 147.302 445.014 147.238L444.705 146.919C443.757 147.727 442.854 148.131 442.016 148.131C441.928 148.131 441.84 148.131 441.774 148.11C440.848 148.025 440.385 147.43 440.363 147.408C440.253 147.259 440.275 147.068 440.429 146.962C440.584 146.856 440.782 146.877 440.892 147.026C440.914 147.047 441.223 147.429 441.862 147.493C442.567 147.557 443.383 147.196 444.264 146.452L444.088 146.26C443.956 146.133 443.978 145.92 444.11 145.814C444.242 145.686 444.463 145.708 444.573 145.835L445.499 146.813C445.631 146.941 445.609 147.132 445.477 147.259Z" fill="#9A3B82"/>
<path d="M448.827 140.925C448.738 140.925 448.65 140.904 448.584 140.84C446.645 139.012 444.176 139.373 444.154 139.373C443.978 139.394 443.801 139.288 443.779 139.118C443.757 138.948 443.868 138.778 444.044 138.757C444.154 138.735 446.865 138.31 449.047 140.393C449.179 140.521 449.179 140.712 449.047 140.84C449.003 140.904 448.915 140.925 448.827 140.925Z" fill="#9A3B82"/>
<path d="M441.311 145.389C441.289 145.389 441.245 145.389 441.223 145.367C441.046 145.325 440.958 145.134 441.002 144.964C441.002 144.942 441.686 142.774 440.584 140.925C439.636 139.33 437.498 139.819 437.476 139.841C437.3 139.883 437.123 139.777 437.079 139.607C437.035 139.437 437.145 139.267 437.322 139.224C438.225 139.012 440.209 139.012 441.157 140.627C442.413 142.732 441.686 145.07 441.641 145.176C441.575 145.304 441.465 145.389 441.311 145.389Z" fill="#9A3B82"/>
<path d="M438.843 142.902C439.062 142.902 439.239 142.531 439.239 142.073C439.239 141.615 439.062 141.244 438.843 141.244C438.623 141.244 438.446 141.615 438.446 142.073C438.446 142.531 438.623 142.902 438.843 142.902Z" fill="#9A3B82"/>
<path d="M445.697 143.072C445.953 143.072 446.16 142.625 446.16 142.073C446.16 141.521 445.953 141.074 445.697 141.074C445.441 141.074 445.234 141.521 445.234 142.073C445.234 142.625 445.441 143.072 445.697 143.072Z" fill="#9A3B82"/>
<path d="M453.653 145.176C453.477 145.176 453.323 145.028 453.323 144.857C453.323 143.476 454.491 142.349 455.923 142.349C456.1 142.349 456.254 142.498 456.254 142.668C456.254 142.838 456.1 142.987 455.923 142.987C454.843 142.987 453.984 143.816 453.984 144.857C453.984 145.028 453.852 145.176 453.653 145.176Z" fill="#9A3B82"/>
<path d="M567.114 546.192C566.519 546.022 566.189 545.937 566.189 545.937L558.982 568.704L531.85 561.838C531.63 561.646 531.52 561.54 531.52 561.54C531.52 561.54 421.65 478.488 415.876 438.631C410.123 398.774 456.143 360.958 456.143 360.958C456.143 360.958 554.287 539.879 566.431 545.725C566.673 545.852 566.916 546.001 567.114 546.192Z" fill="#FFE6CF"/>
<path d="M479.374 402.813C475.936 420.563 463.858 456.508 451.362 491.285C432.848 472.047 417.905 452.64 415.877 438.61C412.218 413.356 429.388 388.889 442.435 374.392C447.218 370.693 452.375 367.292 457.951 364.252C461.368 370.438 469.28 384.766 479.374 402.813Z" fill="#5B4639"/>
<path d="M628.783 561.519L588.428 586.496L576.725 584.795L565.947 591.385L569.43 598.272L551.688 609.262C528.171 588.622 531.499 561.774 531.499 561.774L558.961 568.725L566.168 545.958C566.168 545.958 590.831 552.91 609.036 552.314C627.285 551.719 628.783 561.519 628.783 561.519Z" fill="white" stroke="#FE5244" stroke-width="6" stroke-miterlimit="10"/>
<path d="M582.918 548.998C582.918 548.998 581.221 531.695 576.967 532.779C572.714 533.884 578.047 551.145 582.83 549.253C587.613 547.362 592.395 535.096 592.395 535.096" stroke="#FE5244" stroke-width="6" stroke-miterlimit="10"/>
<path d="M535.708 586.475L562.752 586.879L576.174 579.141L588.913 581.118L627.108 558.118" stroke="#FE5244" stroke-width="6" stroke-miterlimit="10"/>
<path d="M577.32 548.021L574.808 559.308" stroke="#FE5244" stroke-width="6" stroke-miterlimit="10"/>
<path d="M582.786 549.296L580.273 560.583" stroke="#FE5244" stroke-width="6" stroke-miterlimit="10"/>
<path d="M588.495 550.21L585.982 561.498" stroke="#FE5244" stroke-width="6" stroke-miterlimit="10"/>
<path d="M446.821 352.263C446.821 352.263 462.977 359.533 462.977 386.19C462.977 411.953 401.309 569.724 401.309 569.724L382.332 585.242L363.069 564.899C372.48 556.268 345.459 400.241 446.821 352.263Z" fill="#FFE6CF"/>
<path d="M445.102 615.469L397.143 615.512L388.239 607.987L375.478 607.923L374.552 615.533L355.752 615.555C345.525 584.859 363.157 564.877 363.157 564.877L382.288 585.199L401.397 569.703C401.397 569.703 417.971 588.452 433.619 597.422C449.312 606.414 445.102 615.469 445.102 615.469Z" fill="white" stroke="#FE5244" stroke-width="6" stroke-miterlimit="10"/>
<path d="M412.329 580.629C412.329 580.629 431.151 568.916 425.795 564.431C420.439 559.946 409.662 579.417 412.593 580.969C415.524 582.521 435.823 576.633 435.823 576.633" stroke="#FE5244" stroke-width="6" stroke-miterlimit="10"/>
<path d="M353.217 588.409L375.72 602.099H391.346L401.242 610.113H445.477" stroke="#FE5244" stroke-width="6" stroke-miterlimit="10"/>
<path d="M408.141 576.208L399.678 584.37" stroke="#FE5244" stroke-width="6" stroke-miterlimit="10"/>
<path d="M412.02 580.14L403.557 588.303" stroke="#FE5244" stroke-width="6" stroke-miterlimit="10"/>
<path d="M416.296 583.881L407.833 592.044" stroke="#FE5244" stroke-width="6" stroke-miterlimit="10"/>
<path d="M446.821 352.263C408.714 370.29 388.746 403.621 378.189 438.631H262.545C232.945 438.631 210.883 412.294 217.12 384.383L225.606 346.375H426.677C434.126 346.375 441.047 348.543 446.821 352.263Z" fill="#FE5244"/>
<path d="M360.953 388.698L402.587 388.613L396.416 398.37L360.953 388.698Z" fill="#FFE6CF"/>
<path d="M447.041 352.051C428.087 361.021 413.629 373.776 402.565 388.635H297.059C278.039 388.635 263.845 371.778 267.724 353.815L269.333 346.375" stroke="white" stroke-width="6" stroke-miterlimit="10" stroke-linecap="round"/>
<path d="M378.343 438.61C382.552 424.644 388.239 410.933 395.975 398.37L360.953 388.677" stroke="white" stroke-width="6" stroke-miterlimit="10" stroke-linecap="round"/>
<path d="M198.585 244.277L219.765 324.416H180.247C157.238 324.416 142.427 300.842 153.094 281.179L183.443 225.209C192.039 209.372 209.031 199.445 227.567 199.445H234.73C210.398 199.424 192.568 221.532 198.585 244.277Z" fill="#3FB1B5"/>
<path d="M442.479 223.488C454.932 223.488 465.291 221.893 467.803 219.661L429.167 300.438C422.18 315.063 406.995 324.416 390.311 324.416C385.418 324.416 380.613 323.609 376.073 322.057C371.532 320.505 367.257 318.231 363.444 315.255L339.09 296.293C339.09 296.293 336.665 310.047 319.364 313.554V346.333H225.584L198.585 244.256C192.568 221.511 210.398 199.382 234.73 199.382H300.387C306.184 199.382 311.892 200.084 317.402 201.444C332.478 205.143 346.01 213.688 355.575 225.932L387.666 267.001L416.494 218.407C416.494 218.45 416.472 218.513 416.472 218.556C416.494 221.383 428.153 223.488 442.479 223.488Z" fill="#3FB1B5"/>
<path d="M198.364 244.277L219.104 325.054" stroke="white" stroke-width="6" stroke-miterlimit="10" stroke-linecap="round"/>
<path d="M339.31 297.377L320.885 278.458" stroke="white" stroke-width="6" stroke-miterlimit="10" stroke-linecap="round"/>
<path d="M468.376 218.471L467.803 219.661C465.291 221.915 454.932 223.488 442.479 223.488C428.153 223.488 416.494 221.383 416.494 218.598C416.494 218.556 416.494 218.492 416.516 218.45C416.913 215.729 428.418 213.39 442.501 213.39C456.563 213.39 467.98 215.729 468.376 218.471C468.376 218.45 468.376 218.45 468.376 218.471Z" fill="#FE5244"/>
<path d="M479.924 177.657C479.924 178.869 479.616 180.059 479.042 181.101C478.469 182.143 477.632 183.057 476.596 183.758L476.089 184.098L472.144 204.399C471.505 207.694 469.477 210.606 466.546 212.413L461.146 215.729L456.87 218.365L454.887 222.935C451.206 223.296 446.996 223.509 442.5 223.509C437.96 223.509 433.684 223.296 429.959 222.914V191.432C429.959 190.072 430.268 188.732 430.863 187.499L438.048 172.577C438.048 172.577 445.894 174.448 442.28 183.737C438.996 192.176 446.489 190.008 450.699 188.499C454.468 187.138 470.932 179.06 477.367 176.106C478.558 175.553 479.924 176.403 479.924 177.657Z" fill="#FFE6CF"/>
<path d="M473.049 196.683C472.409 199.977 470.382 202.868 467.45 204.675L457.775 210.627" stroke="#5B4639" stroke-width="5" stroke-miterlimit="10" stroke-linecap="round"/>
<path d="M474.635 188.073C473.996 191.368 471.969 194.259 469.037 196.066L459.362 202.018" stroke="#5B4639" stroke-width="5" stroke-miterlimit="10" stroke-linecap="round"/>
<path d="M475.384 184.332L459.823 193.855" stroke="#5B4639" stroke-width="5" stroke-miterlimit="10" stroke-linecap="round"/>
<path d="M461.985 215.198L461.125 215.729L456.849 218.365L454.866 222.935C451.185 223.297 446.975 223.509 442.479 223.509C437.939 223.509 433.663 223.297 429.938 222.914V214.071C433.663 213.646 437.939 213.412 442.479 213.412C450.259 213.391 457.224 214.092 461.985 215.198Z" fill="#5B4639"/>
<path d="M315.352 200.954C312.157 205.099 300.255 214.856 260.186 214.856C208.635 214.856 241.629 199.466 241.629 199.466L263.492 164.243L286.943 178.124V189.284C286.943 194.917 291.681 199.466 297.5 199.466H299.021C304.487 199.445 310.129 199.678 315.352 200.954Z" fill="#FFE6CF"/>
<path d="M286.921 178.104V180.952L241.607 199.446L263.47 164.223L286.921 178.104Z" fill="#5B4639"/>
<path d="M288.155 179.485H293.136C297.72 179.485 301.445 175.893 301.445 171.471V144.708H271.713V163.627C271.713 172.385 279.075 179.485 288.155 179.485Z" fill="#FFE6CF"/>
<path d="M300.806 169.919C297.61 169.919 296.332 167.794 296.332 167.794" stroke="#5B4639" stroke-width="5" stroke-miterlimit="10" stroke-linecap="round"/>
<path d="M297.919 161.353C298.503 161.353 298.977 160.468 298.977 159.376C298.977 158.284 298.503 157.399 297.919 157.399C297.335 157.399 296.861 158.284 296.861 159.376C296.861 160.468 297.335 161.353 297.919 161.353Z" fill="#5B4639"/>
<path d="M277.378 147.493C277.378 147.493 301.908 161.778 309.887 149.343C316.895 138.438 285.841 132.826 274.997 132.783C263.206 132.741 247.58 137.779 247.844 154.508C248.064 168.283 248.66 188.435 240.196 184.927C210.09 172.471 183.333 185.48 183.245 210.266C183.157 235.052 212.977 237.369 213.726 230.97C214.498 224.593 195.213 226.06 197.813 242.619C200.392 259.178 211.897 279.883 238.169 279.883C269.906 279.904 290.117 239.601 270.479 235.498C255.426 232.352 285.819 260.369 294.833 231.247C304.531 199.892 269.487 189.625 268.628 170.685C267.768 151.745 277.378 147.493 277.378 147.493Z" fill="#5B4639" stroke="white" stroke-width="5" stroke-miterlimit="10"/>
<path d="M275.659 158.866H293.202" stroke="#FE5244" stroke-width="6" stroke-miterlimit="10"/>
<path d="M298.602 165.668C301.353 165.668 303.583 162.908 303.583 159.504C303.583 156.099 301.353 153.339 298.602 153.339C295.851 153.339 293.621 156.099 293.621 159.504C293.621 162.908 295.851 165.668 298.602 165.668Z" stroke="#FE5244" stroke-width="6" stroke-miterlimit="10"/>
<path d="M266.358 151.277V133.379C266.358 130.7 268.606 128.511 271.405 128.511H276.915C279.692 128.511 281.962 130.679 281.962 133.379" stroke="#66B0F0" stroke-width="6" stroke-miterlimit="10"/>
<path d="M271.669 170.982H261.068C258.357 170.982 256.153 168.857 256.153 166.242V156.017C256.153 153.403 258.357 151.277 261.068 151.277H271.669C274.38 151.277 276.584 153.403 276.584 156.017V166.242C276.562 168.857 274.38 170.982 271.669 170.982Z" fill="white" stroke="#66B0F0" stroke-width="6" stroke-miterlimit="10"/>
<path d="M268.914 167.603H263.735C261.509 167.603 259.68 165.86 259.68 163.691V158.696C259.68 156.549 261.487 154.785 263.735 154.785H268.914C271.14 154.785 272.97 156.528 272.97 158.696V163.691C272.97 165.86 271.162 167.603 268.914 167.603Z" fill="white" stroke="#66B0F0" stroke-width="6" stroke-miterlimit="10"/>
<path d="M270.964 155.295L261.751 167.114" stroke="#66B0F0" stroke-width="6" stroke-miterlimit="10"/>
<path d="M267.922 154.891L259.944 165.094" stroke="#66B0F0" stroke-width="6" stroke-miterlimit="10"/>
<path d="M272.749 157.399L264.771 167.603" stroke="#66B0F0" stroke-width="6" stroke-miterlimit="10"/>
<path d="M272.97 161.204L267.967 167.603" stroke="#66B0F0" stroke-width="6" stroke-miterlimit="10"/>
<path d="M264.683 154.891L259.702 161.247" stroke="#66B0F0" stroke-width="6" stroke-miterlimit="10"/>
<path d="M258.511 450.727V462.439C258.511 468.094 253.751 472.685 247.888 472.685H220.647" stroke="#66B0F0" stroke-width="6" stroke-miterlimit="10"/>
<path d="M268.672 450.854V558.309" stroke="#66B0F0" stroke-width="6" stroke-miterlimit="10"/>
<path d="M219.346 592.767C219.346 573.742 238.94 558.309 263.096 558.309H274.072C298.227 558.309 317.821 573.742 317.821 592.767" stroke="#66B0F0" stroke-width="6" stroke-miterlimit="10"/>
<path d="M374.662 452.491H214.652C206.629 452.491 200.149 446.22 200.149 438.504H378.453L374.662 452.491Z" fill="#5B4639"/>
<path d="M218.377 615.554C224.901 615.554 230.19 610.453 230.19 604.161C230.19 597.868 224.901 592.767 218.377 592.767C211.852 592.767 206.563 597.868 206.563 604.161C206.563 610.453 211.852 615.554 218.377 615.554Z" fill="#5B4639"/>
<path d="M212.36 475.597H236.075C238.014 475.597 239.579 474.088 239.579 472.217V471.962C239.579 470.092 238.014 468.583 236.075 468.583H212.36C210.42 468.583 208.855 470.092 208.855 471.962V472.217C208.855 474.088 210.42 475.597 212.36 475.597Z" fill="#5B4639"/>
<path d="M200.149 438.929H313.678L275.703 336.299C273.058 329.178 266.071 324.417 258.225 324.417H174.759C166.472 324.417 160.698 332.324 163.475 339.849L200.149 438.929Z" stroke="#5B4639" stroke-width="6" stroke-miterlimit="10"/>
<path d="M205.77 438.929H304.465L267.768 339.701C265.211 332.813 258.467 328.222 250.885 328.222H166.384" stroke="#5B4639" stroke-width="6" stroke-miterlimit="10"/>
<path d="M317.623 615.554C324.147 615.554 329.436 610.453 329.436 604.161C329.436 597.868 324.147 592.767 317.623 592.767C311.098 592.767 305.809 597.868 305.809 604.161C305.809 610.453 311.098 615.554 317.623 615.554Z" fill="#5B4639"/>
</svg>
