<svg width="128" height="128" viewBox="0 0 128 128" fill="none" xmlns="http://www.w3.org/2000/svg">
<path d="M63.9974 70.0953C50.1581 70.0953 38.4 74.1196 30.72 80.4275V92.16H97.28V80.4275C89.6 74.1196 77.8393 70.0953 63.9974 70.0953ZM125.107 64.0742L63.8361 35.84L2.5907 64.0742L12.8 68.7462V75.9321C10.24 76.462 10.2323 77.8035 10.2323 79.3984C10.2323 80.3404 10.5446 81.4438 11.1385 82.1043L7.63646 89.6H20.1293L16.6579 82.0992C17.2416 81.4387 17.7203 80.4659 17.7203 79.5238C17.7203 77.9315 15.36 76.4595 15.36 75.9296V69.9468L28.16 75.6966V75.1872C35.84 68.5081 49.3337 64.2688 63.9949 64.2688C78.6611 64.2688 92.16 68.5081 99.84 75.1872V75.6966L125.107 64.0742Z" fill="#333333"/>
</svg>
