<svg width="1191" height="1017" viewBox="0 0 1191 1017" fill="none" xmlns="http://www.w3.org/2000/svg">
<path d="M922.059 156.59L981.786 214.217L1041.81 539.073H478.745L922.059 156.59Z" fill="#D2B658" fill-opacity="0.62"/>
<path d="M982.299 213.765L922.391 155.956L932.411 145.547C947.169 130.22 973.758 131.97 989.089 146.693C1004.42 161.447 1007.11 188.028 992.349 203.355L982.299 213.765Z" fill="white" stroke="#D2B658" stroke-opacity="0.62" stroke-width="6" stroke-miterlimit="10" stroke-linecap="round"/>
<path d="M992.318 203.355L932.381 145.547" stroke="#D2B658" stroke-opacity="0.62" stroke-width="6" stroke-miterlimit="10" stroke-linecap="round"/>
<path d="M992.379 149.318L999.079 144.189C1008.07 137.31 1020.99 139.121 1027.72 148.262L1192.38 348.661L1108.09 536.599" stroke="#3FB1B5" stroke-width="6" stroke-miterlimit="10" stroke-linecap="round"/>
<path d="M1189.7 358.889C1194.8 358.889 1198.93 354.756 1198.93 349.657C1198.93 344.558 1194.8 340.424 1189.7 340.424C1184.59 340.424 1180.46 344.558 1180.46 349.657C1180.46 354.756 1184.59 358.889 1189.7 358.889Z" fill="white" stroke="#D2B658" stroke-opacity="0.62" stroke-width="6" stroke-miterlimit="10" stroke-linecap="round"/>
<path d="M1084.67 515.6H1129.67C1142.61 515.6 1153.09 526.099 1153.09 539.013V539.676H1061.22V539.013C1061.25 526.099 1071.72 515.6 1084.67 515.6Z" fill="white" stroke="#D2B658" stroke-opacity="0.62" stroke-width="6" stroke-miterlimit="10" stroke-linecap="round"/>
<path d="M866.679 471.157H581.81C571.096 471.157 562.434 462.498 562.434 451.787V252.595C562.434 241.884 571.096 233.225 581.81 233.225H866.679C877.393 233.225 886.055 241.884 886.055 252.595V451.757C886.085 462.468 877.393 471.157 866.679 471.157Z" fill="white" stroke="#3FB1B5" stroke-width="6" stroke-miterlimit="10" stroke-linecap="round"/>
<path d="M866.86 452.632H584.738C580.543 452.632 577.162 449.222 577.162 445.059V254.496C577.162 250.302 580.573 246.923 584.738 246.923H866.86C871.055 246.923 874.435 250.332 874.435 254.496V445.029C874.465 449.222 871.055 452.632 866.86 452.632Z" fill="#66B0F0" stroke="#66B0F0" stroke-width="6" stroke-miterlimit="10" stroke-linejoin="round"/>
<path d="M594.848 264.724H590.381C588.933 264.724 587.725 263.547 587.725 262.069V257.604C587.725 256.155 588.902 254.948 590.381 254.948H594.848C596.296 254.948 597.504 256.125 597.504 257.604V262.069C597.473 263.547 596.296 264.724 594.848 264.724Z" stroke="white" stroke-width="6" stroke-miterlimit="10" stroke-linecap="round"/>
<path d="M615.159 264.724H610.692C609.244 264.724 608.036 263.547 608.036 262.069V257.604C608.036 256.155 609.213 254.948 610.692 254.948H615.159C616.608 254.948 617.815 256.125 617.815 257.604V262.069C617.815 263.547 616.608 264.724 615.159 264.724Z" stroke="white" stroke-width="6" stroke-miterlimit="10" stroke-linecap="round"/>
<path d="M635.47 264.724H631.004C629.555 264.724 628.348 263.547 628.348 262.069V257.604C628.348 256.155 629.525 254.948 631.004 254.948H635.47C636.919 254.948 638.126 256.125 638.126 257.604V262.069C638.126 263.547 636.949 264.724 635.47 264.724Z" stroke="white" stroke-width="6" stroke-miterlimit="10" stroke-linecap="round"/>
<path d="M784.378 539.073H673.799L695.498 471.157H762.649L784.378 539.073Z" fill="white" stroke="#3FB1B5" stroke-width="6" stroke-miterlimit="10" stroke-linecap="round"/>
<path d="M682.491 511.888L695.498 471.157H762.649L682.491 511.888Z" fill="#3FB1B5"/>
<path d="M850.442 309.408H796.692C791.651 309.408 787.577 305.335 787.577 300.296V265.599C787.577 260.56 791.651 256.487 796.692 256.487H850.442C855.482 256.487 859.557 260.56 859.557 265.599V300.296C859.557 305.335 855.482 309.408 850.442 309.408Z" stroke="white" stroke-width="6" stroke-miterlimit="10" stroke-linecap="round"/>
<path d="M802.939 268.858H843.953" stroke="white" stroke-width="6" stroke-miterlimit="10" stroke-linecap="round"/>
<path d="M802.939 278.211H843.953" stroke="white" stroke-width="6" stroke-miterlimit="10" stroke-linecap="round"/>
<path d="M802.939 287.564H843.953" stroke="white" stroke-width="6" stroke-miterlimit="10" stroke-linecap="round"/>
<path d="M802.939 296.917H843.953" stroke="white" stroke-width="6" stroke-miterlimit="10" stroke-linecap="round"/>
<path d="M865.291 452.632H651.646L639.122 470.584C624.967 490.859 595.059 491.161 580.512 471.157L504.217 366.251C507.416 370.233 522.053 365.798 535.997 356.626C550.151 347.303 559.296 335.566 556.428 331.222L609.334 398.625L625.541 370.022C629.977 362.449 637.341 357.018 645.912 355.027L701.051 343.351H748.585L800.977 354.906C810.091 356.988 817.817 362.932 822.194 371.169L865.291 452.632Z" fill="white" stroke="#3FB1B5" stroke-width="6" stroke-miterlimit="10"/>
<path d="M806.651 451.395L791.47 421.434" stroke="#3FB1B5" stroke-width="6" stroke-miterlimit="10" stroke-linecap="round"/>
<path d="M650.439 454.201L665.469 424.542" stroke="#3FB1B5" stroke-width="6" stroke-miterlimit="10" stroke-linecap="round"/>
<path d="M588.751 372.466L623.187 416.486" stroke="#3FB1B5" stroke-width="6" stroke-miterlimit="10" stroke-linecap="round"/>
<path d="M730.748 357.833L743.424 373.251L771.793 349.174" stroke="#3FB1B5" stroke-width="6" stroke-miterlimit="10" stroke-linecap="round"/>
<path d="M721.06 358.135L708.747 373.854L677.571 349.174" stroke="#3FB1B5" stroke-width="6" stroke-miterlimit="10" stroke-linecap="round"/>
<path d="M566.931 344.708C569.798 349.083 560.623 360.971 546.378 370.415C532.375 379.707 517.526 384.173 514.297 380.16" stroke="#3FB1B5" stroke-width="6" stroke-miterlimit="10" stroke-linecap="round"/>
<path d="M557.454 352.342C559.338 352.342 560.865 350.815 560.865 348.932C560.865 347.05 559.338 345.523 557.454 345.523C555.571 345.523 554.044 347.05 554.044 348.932C554.044 350.815 555.571 352.342 557.454 352.342Z" stroke="#3FB1B5" stroke-width="6" stroke-miterlimit="10" stroke-linecap="round"/>
<path d="M725.859 373.764C727.743 373.764 729.269 372.237 729.269 370.354C729.269 368.471 727.743 366.945 725.859 366.945C723.976 366.945 722.449 368.471 722.449 370.354C722.449 372.237 723.976 373.764 725.859 373.764Z" stroke="#3FB1B5" stroke-width="6" stroke-miterlimit="10" stroke-linecap="round"/>
<path d="M725.859 401.22C727.743 401.22 729.269 399.693 729.269 397.81C729.269 395.927 727.743 394.401 725.859 394.401C723.976 394.401 722.449 395.927 722.449 397.81C722.449 399.693 723.976 401.22 725.859 401.22Z" stroke="#3FB1B5" stroke-width="6" stroke-miterlimit="10" stroke-linecap="round"/>
<path d="M638.035 472.032L651.646 452.632V472.032H638.035Z" fill="#3FB1B5"/>
<path d="M535.665 355.721C521.721 364.893 507.084 369.328 503.885 365.346C503.825 365.285 503.795 365.225 503.734 365.134C503.07 364.139 503.131 362.781 503.734 361.122C505.817 355.661 514.418 347.213 525.343 340.032C534.035 334.299 542.606 330.317 548.551 329.08C551.992 328.386 554.557 328.597 555.795 329.924L556.096 330.286C558.933 334.631 549.819 346.398 535.665 355.721Z" fill="#FE5244"/>
<path d="M535.665 355.721C527.727 360.941 519.549 364.652 513.392 366.1L485.838 327.239C482.005 321.808 483.272 314.296 488.735 310.464L513.543 293.025L499.479 269.099C497.427 265.629 498.604 261.134 502.105 259.112C503.251 258.448 504.489 258.147 505.726 258.147C508.11 258.147 510.464 259.323 511.853 261.496L555.825 329.864L556.127 330.347C558.933 334.631 549.819 346.398 535.665 355.721Z" fill="#FFE6CF"/>
<path d="M513.482 293.296L528.844 317.102C530.263 319.334 529.629 322.291 527.395 323.739L523.985 325.972C521.752 327.45 518.734 326.817 517.285 324.584L502.769 302.861" stroke="#5B4639" stroke-width="6" stroke-miterlimit="10" stroke-linecap="round"/>
<path d="M517.225 324.524C518.703 326.787 518.04 329.834 515.776 331.282L512.667 333.243C510.434 334.661 507.476 334.028 506.028 331.825" stroke="#5B4639" stroke-width="6" stroke-miterlimit="10" stroke-linecap="round"/>
<path d="M491.753 310.524L505.968 331.644C507.447 333.907 506.813 336.954 504.489 338.403L501.592 340.002C499.419 341.39 496.552 340.816 495.043 338.704L486.803 327.088" stroke="#5B4639" stroke-width="6" stroke-miterlimit="10" stroke-linecap="round"/>
<path d="M545.564 313.934L538.351 302.74C535.967 299.029 530.987 298.003 527.335 300.477L509.438 312.606C509.438 312.606 514.629 321.929 527.245 314.537L531.47 321.265C522.838 326.726 520.364 338.222 525.977 346.76L545.564 313.934Z" fill="#FFE6CF"/>
<path d="M544.628 314.235L537.415 303.042C535.031 299.331 530.051 298.305 526.4 300.779L509.438 312.606C509.438 312.606 514.629 321.929 527.245 314.537L531.47 321.265C522.838 326.726 520.364 338.222 525.977 346.76" stroke="#5B4639" stroke-width="6" stroke-miterlimit="10" stroke-linecap="round"/>
<path d="M535.665 355.721C527.727 360.941 519.549 364.652 513.392 366.1L506.541 356.445C510.374 351.437 517.225 345.402 525.343 340.062C534.035 334.329 542.606 330.347 548.552 329.11C551.992 328.416 554.557 328.627 555.795 329.955L556.097 330.317C556.127 330.377 556.157 330.407 556.187 330.467C556.217 330.498 556.217 330.528 556.247 330.588C556.278 330.648 556.308 330.679 556.338 330.739C558.39 335.355 549.366 346.67 535.665 355.721Z" fill="#5B4639"/>
<path d="M748.554 316.8V343.321C748.554 351.014 737.87 357.23 724.742 357.23C711.583 357.23 700.93 351.014 700.93 343.321V316.8H748.554Z" fill="#FFE6CF"/>
<path d="M707.902 353.156C703.586 350.652 700.9 347.152 700.9 343.321V316.8H748.554V324.162C748.554 331.795 743.907 338.644 736.845 341.51L707.902 353.156Z" fill="#5B4639"/>
<path d="M761.834 315.231V315.684C761.834 320.27 758.122 323.981 753.534 323.981H748.072C746.231 331.403 739.531 336.924 731.503 336.924H717.982C709.984 336.924 703.254 331.433 701.443 323.981H695.981C691.394 323.981 687.681 320.27 687.681 315.684V315.231C687.681 310.645 691.394 306.934 695.981 306.934H700.93V300.387C700.93 293.387 706.091 287.594 712.821 286.628C714.3 289.102 718.767 295.016 727.881 294.684C732.167 294.533 736.151 293.719 739.44 292.753C743.394 291.607 747.347 294.02 748.343 297.792C748.494 298.637 748.585 299.481 748.585 300.356V306.904H753.534C758.091 306.904 761.834 310.645 761.834 315.231Z" fill="#FFE6CF"/>
<path d="M752.357 306.904H748.555V299.632C748.555 298.999 748.464 298.365 748.313 297.792C747.317 294.02 743.364 291.607 739.41 292.753C736.12 293.719 732.167 294.533 727.851 294.684C718.737 295.016 714.27 289.103 712.791 286.628C706.061 287.594 700.9 293.387 700.9 300.387V306.934H696.162C696.162 306.934 690.73 287.292 694.804 281.741C698.818 276.28 703.647 278.663 703.647 278.663C703.647 278.663 700.749 262.31 716.926 262.612C733.072 262.914 754.077 281.65 755.617 285.09C758.031 290.37 752.357 306.904 752.357 306.904Z" fill="#5B4639"/>
<path d="M750.395 316.77C750.395 313.541 753.021 310.947 756.22 310.947" stroke="#5B4639" stroke-width="5" stroke-miterlimit="10" stroke-linecap="round"/>
<path d="M699.15 316.77C699.15 313.541 696.524 310.947 693.325 310.947" stroke="#5B4639" stroke-width="5" stroke-miterlimit="10" stroke-linecap="round"/>
<path d="M740.949 300.387C740.949 300.387 736.663 297.249 731.201 299.512" stroke="#5B4639" stroke-width="5" stroke-miterlimit="10" stroke-linecap="round"/>
<path d="M708.234 300.387C708.234 300.387 712.519 297.249 717.982 299.512" stroke="#5B4639" stroke-width="5" stroke-miterlimit="10" stroke-linecap="round"/>
<path d="M732.257 322.653C732.257 322.653 729.933 327.662 722.811 325.037" stroke="#5B4639" stroke-width="5" stroke-miterlimit="10" stroke-linecap="round"/>
<path d="M722.479 320.058C724.32 320.179 727.127 320.058 727.127 320.058" stroke="#5B4639" stroke-width="5" stroke-miterlimit="10" stroke-linecap="round"/>
<path d="M736.09 312.968C736.924 312.968 737.599 311.834 737.599 310.434C737.599 309.034 736.924 307.899 736.09 307.899C735.257 307.899 734.581 309.034 734.581 310.434C734.581 311.834 735.257 312.968 736.09 312.968Z" fill="#5B4639"/>
<path d="M714.451 312.968C715.284 312.968 715.96 311.834 715.96 310.434C715.96 309.034 715.284 307.899 714.451 307.899C713.617 307.899 712.942 309.034 712.942 310.434C712.942 311.834 713.617 312.968 714.451 312.968Z" fill="#5B4639"/>
<path d="M718.042 318.972H708.536C706.695 318.972 705.216 317.494 705.216 315.653V306.149C705.216 304.309 706.695 302.831 708.536 302.831H718.042C719.883 302.831 721.362 304.309 721.362 306.149V315.653C721.392 317.464 719.883 318.972 718.042 318.972Z" stroke="white" stroke-width="5" stroke-miterlimit="10"/>
<path d="M741.311 318.972H731.804C729.963 318.972 728.485 317.494 728.485 315.653V306.149C728.485 304.309 729.963 302.831 731.804 302.831H741.311C743.152 302.831 744.631 304.309 744.631 306.149V315.653C744.631 317.464 743.152 318.972 741.311 318.972Z" stroke="white" stroke-width="5" stroke-miterlimit="10"/>
<path d="M721.392 309.106H728.485" stroke="white" stroke-width="5" stroke-miterlimit="10"/>
<path d="M743.816 440.925H710.83C707.842 440.925 705.397 438.511 705.397 435.494V417.965C705.397 414.978 707.812 412.534 710.83 412.534H743.816C746.804 412.534 749.249 414.948 749.249 417.965V435.494C749.249 438.481 746.834 440.925 743.816 440.925Z" stroke="#66B0F0" stroke-width="6" stroke-miterlimit="10" stroke-linejoin="round"/>
<path d="M728.153 433.865H716.986C715.205 433.865 713.757 432.417 713.757 430.637V422.822C713.757 421.042 715.205 419.594 716.986 419.594H728.153C729.933 419.594 731.382 421.042 731.382 422.822V430.637C731.382 432.417 729.933 433.865 728.153 433.865Z" fill="#66B0F0"/>
<path d="M739.018 433.654L735.577 431.361C734.642 430.727 734.068 429.641 734.068 428.464V425.025C734.068 423.848 734.642 422.762 735.577 422.128L739.018 419.835C739.832 419.292 740.889 419.896 740.889 420.922V432.598C740.919 433.594 739.832 434.197 739.018 433.654Z" fill="#66B0F0"/>
<path d="M1184.99 539.676H383.799" stroke="#3FB1B5" stroke-width="6" stroke-miterlimit="10" stroke-linecap="round"/>
<path d="M641.747 544.956V917.453H620.712V846.55C620.712 839.942 615.34 834.572 608.73 834.572H458.162C451.553 834.572 446.181 839.942 446.181 846.55V917.453H425.146V544.956H641.747Z" fill="white" stroke="#3FB1B5" stroke-width="6" stroke-miterlimit="10" stroke-linecap="round"/>
<path d="M642.381 544.956V643.798L425.146 822.624L425.176 544.956H642.381Z" fill="#D0F0E4"/>
<path d="M620.712 573.317V640.871C620.712 647.147 615.641 652.216 609.364 652.216H457.559C451.281 652.216 446.211 647.147 446.211 640.871V573.317C446.211 567.042 451.281 561.973 457.559 561.973H609.364C615.641 561.973 620.712 567.042 620.712 573.317Z" stroke="#3FB1B5" stroke-width="6" stroke-miterlimit="10" stroke-linecap="round"/>
<path d="M572.062 703.386H497.336L494.228 681.995H568.983L572.062 703.386Z" fill="#FFCF2D"/>
<path d="M611.93 669.655C602.604 669.655 595.059 677.198 595.059 686.521V703.386H531.47V686.521C531.47 677.198 539.015 669.655 548.34 669.655H611.93Z" fill="white" stroke="#3FB1B5" stroke-width="6" stroke-miterlimit="10" stroke-linecap="round"/>
<path d="M627.774 681.995H564.185C562.223 674.874 555.674 669.655 547.918 669.655H611.507C619.263 669.655 625.782 674.874 627.774 681.995Z" fill="white" stroke="#3FB1B5" stroke-width="6" stroke-miterlimit="10" stroke-linecap="round"/>
<path d="M620.712 714.731V782.285C620.712 788.561 615.641 793.629 609.364 793.629H457.559C451.281 793.629 446.211 788.561 446.211 782.285V714.731C446.211 708.455 451.281 703.387 457.559 703.387H609.364C615.641 703.387 620.712 708.455 620.712 714.731Z" stroke="#3FB1B5" stroke-width="6" stroke-miterlimit="10" stroke-linecap="round"/>
<path d="M502.376 605.752C502.376 600.381 506.722 596.006 512.124 596.006H554.829C560.201 596.006 564.577 600.351 564.577 605.752" stroke="#3FB1B5" stroke-width="6" stroke-miterlimit="10" stroke-linecap="round"/>
<path d="M502.376 747.165C502.376 741.795 506.722 737.42 512.124 737.42H554.829C560.201 737.42 564.577 741.765 564.577 747.165" stroke="#3FB1B5" stroke-width="6" stroke-miterlimit="10" stroke-linecap="round"/>
<path d="M1153.09 544.956H1130.66V918.267H1153.09V544.956Z" fill="white" stroke="#3FB1B5" stroke-width="6" stroke-miterlimit="10" stroke-linecap="round"/>
<path d="M772.004 918.267H1239.98" stroke="#3FB1B5" stroke-width="6" stroke-miterlimit="10" stroke-linecap="round"/>
<path d="M488.825 488.475H475.275C475.275 488.475 455.929 407.888 438.938 405.263C421.947 402.638 421.071 433.654 421.071 433.654C421.071 433.654 421.373 386.496 463.836 392.953C506.33 399.409 488.825 488.475 488.825 488.475Z" fill="white" stroke="#3FB1B5" stroke-width="6" stroke-miterlimit="10" stroke-linecap="round"/>
<path d="M442.409 395.004C442.409 395.004 481.13 380.703 482.88 487.269" stroke="#3FB1B5" stroke-width="6" stroke-miterlimit="10" stroke-linecap="round"/>
<path d="M525.736 487.269H462.086V539.073H525.736V487.269Z" fill="#FE5244"/>
<path d="M539.135 513.186C535.091 514.936 530.263 514.725 525.766 512.764C522.446 511.315 519.307 508.932 516.772 505.673C513.271 501.148 510.917 494.962 510.917 487.269C510.917 468.623 496.069 456.916 489.972 481.596C489.55 483.316 489.157 485.187 488.825 487.269V487.208V487.088C488.825 487.027 488.825 486.937 488.856 486.846V486.726C488.976 485.187 489.429 480.631 490.817 475.14C491.843 471.067 493.383 466.541 495.676 462.347C496.823 460.265 498.151 458.274 499.72 456.494C503.765 451.847 509.318 448.589 516.893 448.589C530.836 448.589 541.037 465.002 544.93 481.355C548.34 495.566 546.952 509.777 539.135 513.186Z" fill="white" stroke="#3FB1B5" stroke-width="6" stroke-miterlimit="10" stroke-linecap="round"/>
<path d="M499.751 456.494C499.751 456.494 527.697 436.611 535.906 513.759" stroke="#3FB1B5" stroke-width="6" stroke-miterlimit="10" stroke-linecap="round"/>
<path d="M420.166 433.654C420.166 438.632 419.593 457.67 437.761 458.545C455.929 459.42 457.74 431.994 457.74 431.994C457.74 431.994 448.807 407.737 438.938 405.263C422.249 401.069 420.166 433.654 420.166 433.654Z" fill="#3FB1B5"/>
<path d="M510.917 487.269H488.825C493.926 455.317 510.917 467.325 510.917 487.269Z" fill="#3FB1B5"/>
<path opacity="0.4" d="M886.085 252.595V451.757C886.085 462.468 877.393 471.127 866.709 471.127H638.699C624.394 490.829 594.908 490.919 580.482 471.127L580.452 471.097C574.718 470.704 569.648 467.778 566.388 463.463L571.64 458.938L705.639 343.321L833.24 233.225H866.709C877.393 233.225 886.085 241.914 886.085 252.595Z" fill="white"/>
<path opacity="0.4" d="M539.136 514.091C535.122 515.901 530.263 515.63 525.766 513.669V539.073H478.776L516.802 506.277L525.796 498.523L532.647 492.609L545.896 481.355C549.759 497.829 547.616 510.199 539.136 514.091Z" fill="white"/>
<path d="M291.811 261.586C291.448 261.586 291.086 261.345 290.966 260.983C290.815 260.5 291.056 259.987 291.509 259.836L294.346 258.841C294.829 258.69 295.342 258.931 295.493 259.384C295.643 259.867 295.402 260.379 294.949 260.53L292.112 261.526C291.992 261.556 291.901 261.586 291.811 261.586ZM298.933 259.112C298.571 259.112 298.209 258.871 298.088 258.509C297.937 258.026 298.179 257.513 298.631 257.362L301.468 256.367C301.951 256.216 302.464 256.457 302.615 256.91C302.766 257.393 302.525 257.905 302.072 258.056L299.235 259.052C299.144 259.082 299.024 259.112 298.933 259.112ZM306.056 256.608C305.693 256.608 305.331 256.367 305.211 256.005C305.06 255.522 305.301 255.009 305.754 254.858L308.591 253.862C309.074 253.712 309.587 253.953 309.738 254.406C309.888 254.888 309.647 255.401 309.194 255.552L306.357 256.548C306.267 256.608 306.146 256.608 306.056 256.608ZM313.178 254.134C312.816 254.134 312.454 253.893 312.333 253.531C312.182 253.048 312.424 252.535 312.876 252.384L315.713 251.388C316.196 251.238 316.709 251.479 316.86 251.931C317.011 252.414 316.769 252.927 316.317 253.078L313.48 254.074C313.389 254.134 313.299 254.134 313.178 254.134ZM320.301 251.66C319.938 251.66 319.576 251.419 319.455 251.056C319.305 250.574 319.546 250.061 319.999 249.91L322.836 248.914C323.319 248.763 323.832 249.005 323.982 249.457C324.133 249.94 323.892 250.453 323.439 250.604L320.602 251.6C320.512 251.66 320.421 251.66 320.301 251.66ZM327.453 249.186C327.091 249.186 326.729 248.945 326.608 248.582C326.457 248.1 326.699 247.587 327.151 247.436L329.988 246.44C330.471 246.289 330.984 246.531 331.135 246.983C331.286 247.466 331.045 247.979 330.592 248.13L327.755 249.126C327.634 249.186 327.544 249.186 327.453 249.186ZM334.576 246.712C334.213 246.712 333.851 246.47 333.731 246.108C333.58 245.626 333.821 245.113 334.274 244.962L337.111 243.966C337.594 243.815 338.107 244.057 338.258 244.509C338.409 244.992 338.167 245.505 337.714 245.656L334.877 246.651C334.757 246.682 334.666 246.712 334.576 246.712ZM341.698 244.238C341.336 244.238 340.974 243.996 340.853 243.634C340.702 243.152 340.944 242.639 341.396 242.488L344.233 241.492C344.716 241.341 345.229 241.583 345.38 242.035C345.531 242.518 345.29 243.031 344.837 243.182L342 244.177C341.879 244.208 341.789 244.238 341.698 244.238ZM348.821 241.764C348.458 241.764 348.096 241.522 347.976 241.16C347.825 240.678 348.066 240.165 348.519 240.014L351.356 239.018C351.839 238.867 352.352 239.109 352.503 239.561C352.653 240.044 352.412 240.557 351.959 240.708L349.122 241.703C349.032 241.734 348.911 241.764 348.821 241.764ZM355.943 239.29C355.581 239.29 355.219 239.048 355.098 238.686C354.947 238.203 355.189 237.691 355.641 237.54L358.478 236.544C358.961 236.393 359.474 236.635 359.625 237.087C359.776 237.57 359.535 238.083 359.082 238.234L356.245 239.229C356.154 239.259 356.034 239.29 355.943 239.29ZM363.066 236.816C362.703 236.816 362.341 236.574 362.221 236.212C362.07 235.729 362.311 235.216 362.764 235.066L365.601 234.07C366.084 233.919 366.597 234.16 366.748 234.613C366.898 235.096 366.657 235.609 366.204 235.76L363.367 236.755C363.277 236.785 363.156 236.816 363.066 236.816ZM370.188 234.311C369.826 234.311 369.464 234.07 369.343 233.708C369.192 233.225 369.434 232.712 369.886 232.561L372.723 231.566C373.206 231.415 373.719 231.656 373.87 232.109C374.021 232.592 373.779 233.104 373.327 233.255L370.49 234.251C370.399 234.311 370.309 234.311 370.188 234.311ZM377.311 231.837C376.948 231.837 376.586 231.596 376.465 231.234C376.315 230.751 376.556 230.238 377.009 230.087L379.846 229.092C380.329 228.941 380.842 229.182 380.992 229.635C381.143 230.118 380.902 230.63 380.449 230.781L377.612 231.777C377.522 231.837 377.431 231.837 377.311 231.837ZM384.463 229.363C384.101 229.363 383.739 229.122 383.618 228.76C383.467 228.277 383.709 227.764 384.161 227.613L386.998 226.618C387.481 226.467 387.994 226.708 388.145 227.161C388.296 227.643 388.055 228.156 387.602 228.307L384.765 229.303C384.644 229.363 384.554 229.363 384.463 229.363ZM391.586 226.889C391.224 226.889 390.861 226.648 390.741 226.286C390.59 225.803 390.831 225.29 391.284 225.139L394.121 224.144C394.604 223.993 395.117 224.234 395.268 224.687C395.419 225.169 395.177 225.682 394.724 225.833L391.887 226.829C391.767 226.889 391.676 226.889 391.586 226.889ZM398.708 224.415C398.346 224.415 397.984 224.174 397.863 223.812C397.712 223.329 397.954 222.816 398.406 222.665L401.243 221.67C401.726 221.519 402.239 221.76 402.39 222.213C402.541 222.695 402.3 223.208 401.847 223.359L399.01 224.355C398.889 224.415 398.799 224.415 398.708 224.415ZM405.831 221.941C405.468 221.941 405.106 221.7 404.986 221.338C404.835 220.855 405.076 220.342 405.529 220.191L408.366 219.195C408.849 219.045 409.362 219.286 409.513 219.739C409.663 220.221 409.422 220.734 408.969 220.885L406.132 221.881C406.042 221.911 405.921 221.941 405.831 221.941ZM412.953 219.467C412.591 219.467 412.229 219.226 412.108 218.864C411.957 218.381 412.199 217.868 412.651 217.717L415.488 216.721C415.971 216.571 416.484 216.812 416.635 217.264C416.786 217.747 416.545 218.26 416.092 218.411L413.255 219.407C413.164 219.437 413.044 219.467 412.953 219.467Z" fill="#FFCF2D"/>
<path d="M323.922 261.586C323.409 261.586 323.017 261.194 323.017 260.681C323.017 252.505 320.482 246.561 315.442 243.061C311.669 240.436 307.836 240.195 307.806 240.195C307.293 240.165 306.931 239.742 306.961 239.229C306.991 238.716 307.414 238.354 307.897 238.385C308.078 238.385 312.212 238.626 316.407 241.522C323.379 246.35 324.828 254.617 324.828 260.681C324.828 261.164 324.435 261.586 323.922 261.586Z" fill="#3FB1B5"/>
<path d="M468.122 261.586H291.811C291.479 261.586 291.147 261.405 290.996 261.073C290.845 260.772 290.875 260.41 291.086 260.138L362.734 164.646C362.884 164.434 363.126 164.314 363.367 164.284C363.609 164.253 363.88 164.344 364.061 164.525L468.756 260.017C469.027 260.259 469.118 260.651 468.997 261.013C468.846 261.345 468.514 261.586 468.122 261.586ZM293.621 259.776H465.798L363.579 166.516L293.621 259.776Z" fill="#3FB1B5"/>
<path d="M275.966 267.862C271.65 267.862 268.149 264.362 268.149 260.048C268.149 255.733 271.65 252.233 275.966 252.233C280.282 252.233 283.783 255.733 283.783 260.048C283.783 264.362 280.282 267.862 275.966 267.862ZM275.966 254.013C272.646 254.013 269.96 256.699 269.96 260.017C269.96 263.336 272.646 266.021 275.966 266.021C279.286 266.021 281.972 263.336 281.972 260.017C281.972 256.699 279.286 254.013 275.966 254.013Z" fill="#FFCF2D"/>
<path d="M283.783 260.048H281.972V266.957H283.783V260.048Z" fill="#FFCF2D"/>
<path d="M368.8 158.702C364.484 158.702 360.983 155.202 360.983 150.887C360.983 146.573 364.484 143.073 368.8 143.073C373.116 143.073 376.616 146.573 376.616 150.887C376.616 155.172 373.116 158.702 368.8 158.702ZM368.8 144.853C365.48 144.853 362.794 147.538 362.794 150.857C362.794 154.176 365.48 156.891 368.8 156.891C372.12 156.891 374.806 154.206 374.806 150.887C374.806 147.568 372.12 144.853 368.8 144.853Z" fill="#FFCF2D"/>
<path d="M362.734 138.789H360.923V157.766H362.734V138.789Z" fill="#FFCF2D"/>
<path d="M482.216 267.681C477.9 267.681 474.399 264.181 474.399 259.867C474.399 255.552 477.9 252.052 482.216 252.052V253.862C478.896 253.862 476.21 256.548 476.21 259.867C476.21 263.185 478.896 265.871 482.216 265.871V267.681Z" fill="#FFCF2D"/>
<path d="M939.292 648.143V816.077H900.481L875.763 747.075L840.362 648.143H939.292Z" fill="#FFE6CF"/>
<path d="M840.362 648.143H939.292V702.059L852.133 680.999L840.362 648.143Z" fill="#5B4639"/>
<path d="M939.293 747.075V816.077H900.481L875.764 747.075C875.764 747.075 895.773 758.117 939.293 747.075Z" stroke="white" stroke-width="6" stroke-miterlimit="10" stroke-linecap="round"/>
<path d="M895.954 763.277C898.388 763.277 900.36 761.305 900.36 758.872C900.36 756.439 898.388 754.467 895.954 754.467C893.521 754.467 891.548 756.439 891.548 758.872C891.548 761.305 893.521 763.277 895.954 763.277Z" stroke="white" stroke-width="6" stroke-miterlimit="10" stroke-linecap="round"/>
<path d="M916.959 777.488C919.393 777.488 921.365 775.515 921.365 773.083C921.365 770.65 919.393 768.677 916.959 768.677C914.526 768.677 912.553 770.65 912.553 773.083C912.553 775.515 914.526 777.488 916.959 777.488Z" stroke="white" stroke-width="6" stroke-miterlimit="10" stroke-linecap="round"/>
<path d="M932.593 761.708C935.026 761.708 936.999 759.736 936.999 757.303C936.999 754.87 935.026 752.898 932.593 752.898C930.159 752.898 928.186 754.87 928.186 757.303C928.186 759.736 930.159 761.708 932.593 761.708Z" stroke="white" stroke-width="6" stroke-miterlimit="10" stroke-linecap="round"/>
<path d="M926.406 794.021C928.839 794.021 930.812 792.049 930.812 789.616C930.812 787.184 928.839 785.211 926.406 785.211C923.972 785.211 921.999 787.184 921.999 789.616C921.999 792.049 923.972 794.021 926.406 794.021Z" stroke="white" stroke-width="6" stroke-miterlimit="10" stroke-linecap="round"/>
<path d="M900.36 785.996C902.794 785.996 904.767 784.024 904.767 781.591C904.767 779.158 902.794 777.186 900.36 777.186C897.927 777.186 895.954 779.158 895.954 781.591C895.954 784.024 897.927 785.996 900.36 785.996Z" stroke="white" stroke-width="6" stroke-miterlimit="10" stroke-linecap="round"/>
<path d="M907.543 810.133C909.976 810.133 911.949 808.161 911.949 805.728C911.949 803.295 909.976 801.323 907.543 801.323C905.109 801.323 903.137 803.295 903.137 805.728C903.137 808.161 905.109 810.133 907.543 810.133Z" stroke="white" stroke-width="6" stroke-miterlimit="10" stroke-linecap="round"/>
<path d="M957.642 847.395L931.023 902.639C927.25 911.539 918.528 917.332 908.841 917.332H874.888C866.196 917.332 860.915 908.522 864.235 900.497L898.368 818.189C900.27 813.181 903.62 809.017 907.815 806.09C912.04 803.164 917.11 801.504 922.452 801.504C929.876 801.504 937.24 806.543 942.129 812.124L953.96 824.887C959.422 831.102 960.841 839.822 957.642 847.395Z" fill="#66B0F0"/>
<path d="M957.642 847.395L931.023 902.639C927.25 911.539 918.528 917.332 908.841 917.332H872.745C869.395 917.332 867.494 915.25 866.377 912.384H874.405C884.093 912.384 892.815 906.591 896.588 897.69L927.281 833.697C930.148 827.723 936.214 823.891 942.853 823.891C951.515 823.891 958.094 830.227 959.301 838.253C959.422 841.33 958.879 844.438 957.642 847.395Z" fill="white" stroke="#66B0F0" stroke-width="6" stroke-miterlimit="10" stroke-linejoin="round"/>
<path d="M951.515 822.232C948.316 820.482 944.453 819.215 941.073 819.215C934.584 819.215 928.579 822.986 925.772 828.839L893.992 895.096C889.948 904.66 880.592 910.845 870.18 910.845H864.325C864.024 910.272 863.812 909.669 863.601 909.035H870.18C879.868 909.035 888.56 903.272 892.332 894.372L892.363 894.341L924.172 828.055C927.281 821.568 933.921 817.404 941.103 817.404C943.397 817.404 946.143 818.159 948.497 818.973L951.515 822.232Z" fill="white"/>
<path d="M840.362 648.143L832.787 747.075L829.407 791.397C829.407 791.397 807.345 815.956 782.236 800.81L770.616 747.105L744.028 624.217C736.845 590.998 759.54 558.684 793.251 554.189L840.362 648.143Z" fill="#FFE6CF"/>
<path d="M832.787 747.075L829.407 792.603C829.407 792.603 807.345 817.163 782.236 802.017L770.616 747.105C799.8 755.855 832.787 747.075 832.787 747.075Z" stroke="white" stroke-width="6" stroke-miterlimit="10" stroke-linecap="round"/>
<path d="M798.11 774.44C800.544 774.44 802.517 772.468 802.517 770.035C802.517 767.602 800.544 765.63 798.11 765.63C795.677 765.63 793.704 767.602 793.704 770.035C793.704 772.468 795.677 774.44 798.11 774.44Z" stroke="white" stroke-width="6" stroke-miterlimit="10" stroke-linecap="round"/>
<path d="M826.117 767.682C828.551 767.682 830.523 765.709 830.523 763.277C830.523 760.844 828.551 758.872 826.117 758.872C823.684 758.872 821.711 760.844 821.711 763.277C821.711 765.709 823.684 767.682 826.117 767.682Z" stroke="white" stroke-width="6" stroke-miterlimit="10" stroke-linecap="round"/>
<path d="M781.21 761.708C783.643 761.708 785.616 759.736 785.616 757.303C785.616 754.87 783.643 752.898 781.21 752.898C778.776 752.898 776.803 754.87 776.803 757.303C776.803 759.736 778.776 761.708 781.21 761.708Z" stroke="white" stroke-width="6" stroke-miterlimit="10" stroke-linecap="round"/>
<path d="M793.704 798.426C796.138 798.426 798.11 796.454 798.11 794.021C798.11 791.589 796.138 789.616 793.704 789.616C791.271 789.616 789.298 791.589 789.298 794.021C789.298 796.454 791.271 798.426 793.704 798.426Z" stroke="white" stroke-width="6" stroke-miterlimit="10" stroke-linecap="round"/>
<path d="M814.257 789.617C816.69 789.617 818.663 787.644 818.663 785.211C818.663 782.779 816.69 780.806 814.257 780.806C811.823 780.806 809.85 782.779 809.85 785.211C809.85 787.644 811.823 789.617 814.257 789.617Z" stroke="white" stroke-width="6" stroke-miterlimit="10" stroke-linecap="round"/>
<path d="M858.501 801.957L829.407 918.267H820.232C819.81 918.267 819.417 918.237 818.995 918.207C812.054 917.574 806.199 911.72 804.72 904.811L782.206 800.75C807.315 815.926 829.407 791.366 829.407 791.366L858.501 801.957Z" fill="#66B0F0"/>
<path d="M859.979 861.636C866.106 829.292 867.796 804.582 857.233 802.59C846.67 800.599 827.868 822.051 821.741 854.395C815.615 886.738 818.814 915.341 829.377 917.332C839.94 919.354 853.853 894.01 859.979 861.636Z" fill="white" stroke="#66B0F0" stroke-width="6" stroke-miterlimit="10" stroke-linejoin="round"/>
<path d="M817.516 853.882C814.347 870.657 813.412 886.859 814.921 899.531C816.007 908.643 818.301 915.13 821.439 918.268H820.232C819.81 918.268 819.417 918.237 818.995 918.207C816.158 914.466 814.136 908.19 813.11 899.742C811.571 886.919 812.506 870.506 815.735 853.55C818.784 837.499 824.94 822.443 833.119 811.129C838.008 804.37 843.139 799.633 847.817 797.491L850.533 798.396C839.759 801.595 823.401 822.835 817.516 853.882Z" fill="white"/>
<path d="M793.25 554.159L930.932 539.978L1068.55 578.567L1067.38 596.851C1065.5 625.695 1040.64 648.143 1011.72 648.143H840.392L793.25 554.159Z" fill="#FE5244"/>
<path d="M1060.71 577.24C1060.71 603.429 1034.57 635.471 1005.66 635.471H834.326" stroke="white" stroke-width="6" stroke-miterlimit="10" stroke-linecap="round" stroke-linejoin="round"/>
<path d="M1044.38 572.02C1040.09 595.403 1017.22 620.385 992.167 620.385H827.384" stroke="white" stroke-width="6" stroke-miterlimit="10" stroke-linecap="round" stroke-linejoin="round"/>
<path d="M1025.82 566.469C1018.57 586.321 998.928 604.998 977.651 604.998H818.632" stroke="white" stroke-width="6" stroke-miterlimit="10" stroke-linecap="round" stroke-linejoin="round"/>
<path d="M1011.54 562.577C1002.04 577.029 986.433 588.403 969.804 588.403H810.786" stroke="white" stroke-width="6" stroke-miterlimit="10" stroke-linecap="round" stroke-linejoin="round"/>
<path d="M995.608 558.111C986.463 567.314 974.633 573.318 962.259 573.318H803.241" stroke="white" stroke-width="6" stroke-miterlimit="10" stroke-linecap="round" stroke-linejoin="round"/>
<path d="M974.874 552.107C968.416 555.758 961.354 557.93 954.111 557.93H795.092" stroke="white" stroke-width="6" stroke-miterlimit="10" stroke-linecap="round" stroke-linejoin="round"/>
<path d="M840.06 648.143L792.949 554.159" stroke="white" stroke-width="6" stroke-miterlimit="10" stroke-linecap="round" stroke-linejoin="round"/>
<path d="M1076.1 452.632C1063.12 456.313 1050.35 455.227 1049 451.274C1047.73 447.503 1053.46 441.046 1065.08 436.762C1065.66 436.55 1066.26 436.339 1066.86 436.128C1070.36 434.951 1073.86 434.197 1077.15 433.805C1086.9 432.568 1094.84 434.318 1095.84 437.275C1097.19 441.227 1089.83 448.74 1076.1 452.632Z" fill="white" stroke="#3FB1B5" stroke-width="6" stroke-miterlimit="10" stroke-linejoin="round"/>
<path d="M1067.89 540.612H1062.91L1049.84 452.421V452.36L1049.51 450.158C1050.14 446.145 1056.42 440.473 1067.5 436.792C1073.02 434.951 1078.51 434.137 1083.19 434.046L1087.96 447.111L1088.41 448.348L1103.5 489.713C1112.56 514.423 1094.24 540.612 1067.89 540.612Z" fill="#FFE6CF"/>
<path d="M1088.26 448.046C1085.09 450.037 1080.99 451.878 1076.1 453.265C1064.87 456.433 1053.49 455.136 1049.84 452.421V452.36L1049.51 450.158C1050.14 446.145 1056.42 440.473 1067.5 436.792C1073.02 434.951 1078.51 434.137 1083.19 434.046L1088.26 448.046Z" fill="#5B4639"/>
<path d="M906.245 468.049L890.401 507.453C882.584 526.914 863.691 539.676 842.686 539.676H629.706V520.186C629.706 515.479 632.603 511.255 637.009 509.596L658.89 501.298C660.882 500.544 662.964 500.152 665.077 500.152H689.915L830.493 485.971L854.758 430.426L906.245 468.049Z" fill="#FFE6CF"/>
<path d="M652.643 513.276L636.134 519.522C632.814 520.789 630.611 523.957 630.611 527.517" stroke="#5B4639" stroke-width="6" stroke-miterlimit="10" stroke-linecap="round"/>
<path d="M652.643 523.233L636.134 529.478C632.814 530.746 630.611 533.914 630.611 537.474" stroke="#5B4639" stroke-width="6" stroke-miterlimit="10" stroke-linecap="round"/>
<path d="M652.643 532.828L636.134 538.771" stroke="#5B4639" stroke-width="6" stroke-miterlimit="10" stroke-linecap="round"/>
<path d="M650.922 504.647C650.922 504.647 666.374 465.213 671.324 465.877C676.273 466.541 657.622 502.113 657.622 502.113L650.922 504.647Z" fill="#FE5244"/>
<path d="M854.758 430.456L851.197 438.572L896.799 491.523L906.245 468.049L854.758 430.456Z" fill="#5B4639"/>
<path d="M1049.84 452.451L1068.55 578.567L930.963 539.978L906.245 468.019L842.445 421.404L864.838 394.733C884.817 370.928 914.303 357.169 945.389 357.169H989.602C1028.05 357.169 1063.45 378.169 1081.89 411.9L1096.23 436.701C1096.23 436.701 1091.91 430.365 1068.64 436.731C1048.15 442.374 1049.84 452.451 1049.84 452.451Z" fill="#3FB1B5"/>
<path d="M906.245 467.446L913.398 436.43" stroke="white" stroke-width="6" stroke-miterlimit="10" stroke-linecap="round" stroke-linejoin="round"/>
<path d="M1065.08 549.12L1041.81 404.508" stroke="white" stroke-width="6" stroke-miterlimit="10" stroke-linecap="round" stroke-linejoin="round"/>
<path d="M930.932 539.405L1068.25 578.567" stroke="white" stroke-width="6" stroke-miterlimit="10" stroke-linecap="round" stroke-linejoin="round"/>
<path d="M938.356 337.015V357.29L974.15 356.988V321.205L938.356 337.015Z" fill="#FFE6CF"/>
<path d="M977.047 314.96V315.503C977.047 320.934 972.943 325.339 967.51 325.339H965.398C964.04 330.709 951.968 336.985 943.397 336.985H933.407C922.482 336.985 914.122 327.179 915.903 316.378L916.385 313.451L913.428 311.792C911.738 310.826 911.255 308.624 912.432 307.055L918.83 298.607L920.218 290.279C921.335 283.43 925.832 277.849 931.807 275.103C934.162 301.624 957.581 304.762 963.768 305.124H967.209C972.641 305.124 977.047 309.529 977.047 314.96Z" fill="#FFE6CF"/>
<path d="M961.203 317.554C961.203 313.27 964.673 309.8 968.959 309.8" stroke="#5B4639" stroke-width="6" stroke-miterlimit="10" stroke-linecap="round"/>
<path d="M928.488 305.395C929.338 305.395 930.027 303.801 930.027 301.835C930.027 299.869 929.338 298.275 928.488 298.275C927.638 298.275 926.948 299.869 926.948 301.835C926.948 303.801 927.638 305.395 928.488 305.395Z" fill="#5B4639"/>
<path d="M926.134 290.823C926.134 290.823 930.389 290.4 934.765 296.434" stroke="#5B4639" stroke-width="6" stroke-miterlimit="10" stroke-linecap="round"/>
<path d="M963.768 305.124H967.209C972.641 305.124 977.047 309.529 977.047 314.96V315.503C977.047 320.933 972.943 325.339 967.51 325.339L965.187 326.968C955.408 333.243 941.888 357.924 945.207 375.393C948.95 395.035 966.062 399.409 981.876 396.392C997.69 393.375 1009.22 384.173 1005.48 364.501C1005.05 362.178 1004.36 359.855 1003.48 357.562C1003.76 357.652 1004 357.743 1004.27 357.833C1023.28 363.023 1045.62 363.626 1051.77 348.782C1057.93 333.937 1056.54 319.244 1038.04 311.58C1027.3 307.115 1012.69 307.145 1001.37 310.223C1007.08 290.4 996.936 268.345 978.315 266.142C949.07 262.672 932.29 274.741 931.838 275.073C931.807 278.573 934.192 303.404 963.768 305.124Z" fill="#5B4639"/>
<path d="M1002.13 309.529C999.743 317.283 994.823 325.58 986.826 331.222C986.826 331.222 1000.95 340.545 1004.27 357.863" stroke="white" stroke-width="6" stroke-miterlimit="10" stroke-linecap="round" stroke-linejoin="round"/>
<path d="M1010.33 308.865H1002.34V300.87C1002.34 296.676 1005.72 293.297 1009.91 293.297H1010.33C1014.53 293.297 1017.91 296.676 1017.91 300.87V301.292C1017.94 305.456 1014.53 308.865 1010.33 308.865Z" stroke="#FE5244" stroke-width="6" stroke-miterlimit="10" stroke-linejoin="round"/>
<path d="M1007.41 317.072L1002.28 308.925L1010.43 303.796C1014.5 301.232 1019.9 302.439 1022.47 306.512L1022.95 307.266C1025.52 311.339 1024.31 316.74 1020.23 319.304L1019.48 319.787C1015.35 322.352 1009.97 321.145 1007.41 317.072Z" stroke="#FE5244" stroke-width="6" stroke-miterlimit="10" stroke-linejoin="round"/>
<path d="M960.146 331.614L965.851 326.153L971.434 332.459C974.18 335.627 973.818 340.424 970.649 343.14L970.317 343.411C967.148 346.157 962.35 345.795 959.633 342.627L959.362 342.295C956.615 339.157 956.978 334.36 960.146 331.614Z" stroke="#FE5244" stroke-width="6" stroke-miterlimit="10" stroke-linejoin="round"/>
<path d="M968.476 335.537L965.911 326.274L975.176 323.709C979.824 322.412 984.622 325.128 985.92 329.774L986.162 330.649C987.459 335.295 984.743 340.093 980.095 341.39L979.22 341.631C974.572 342.898 969.774 340.153 968.476 335.537Z" stroke="#FE5244" stroke-width="6" stroke-miterlimit="10" stroke-linejoin="round"/>
<path d="M886.115 671.344L833.542 917.332" stroke="#FFCF2D" stroke-width="6" stroke-miterlimit="10" stroke-linecap="round"/>
<path d="M1020.66 671.344L1073.23 917.332" stroke="#FFCF2D" stroke-width="6" stroke-miterlimit="10" stroke-linecap="round"/>
<path d="M845.191 862.722H1060.86" stroke="#FFCF2D" stroke-width="6" stroke-miterlimit="10" stroke-linecap="round"/>
<path d="M1062.03 671.345H844.708C841.962 671.345 839.729 669.112 839.729 666.366V653.121C839.729 650.375 841.962 648.143 844.708 648.143H1062.03C1064.78 648.143 1067.01 650.375 1067.01 653.121V666.366C1067.01 669.112 1064.78 671.345 1062.03 671.345Z" fill="white" stroke="#66B0F0" stroke-width="6" stroke-miterlimit="10" stroke-linejoin="round"/>
</svg>
