<svg width="960" height="727" viewBox="0 0 960 727" fill="none" xmlns="http://www.w3.org/2000/svg">
<path d="M581.358 89.7949H310.233V346.177H581.358V89.7949Z" stroke="#66B0F0" stroke-width="6" stroke-miterlimit="10"/>
<path d="M445.796 89.7949H310.233V346.177H445.796V89.7949Z" stroke="#66B0F0" stroke-width="6" stroke-miterlimit="10"/>
<path d="M581.359 89.7949H445.796V346.177H581.359V89.7949Z" stroke="#66B0F0" stroke-width="6" stroke-miterlimit="10"/>
<path d="M556.343 114.596H473.676V197.308H556.343V114.596Z" stroke="#66B0F0" stroke-width="6" stroke-miterlimit="10"/>
<path d="M527.673 154.373L518.061 161.643" stroke="#66B0F0" stroke-width="6" stroke-miterlimit="10" stroke-linecap="round"/>
<path d="M504.671 171.78L473.676 195.231V177.99L556.322 116.673V132.709L534.046 149.554" stroke="#66B0F0" stroke-width="6" stroke-miterlimit="10" stroke-linecap="round"/>
<path d="M310.233 89.7949H445.796V109.632L310.233 89.7949Z" fill="#66B0F0"/>
<path d="M479.655 253.661C478.721 253.661 477.849 253.162 477.371 252.332L457.546 217.643C456.549 215.899 457.816 213.697 459.829 213.697C460.763 213.697 461.635 214.195 462.113 215.026L481.939 249.714C482.935 251.48 481.669 253.661 479.655 253.661Z" stroke="#66B0F0" stroke-width="6" stroke-miterlimit="10"/>
<path d="M417.583 114.596H334.917V197.308H417.583V114.596Z" stroke="#66B0F0" stroke-width="6" stroke-miterlimit="10"/>
<path d="M334.917 177.99L417.562 116.673" stroke="#66B0F0" stroke-width="6" stroke-miterlimit="10" stroke-linecap="round"/>
<path d="M411.583 253.661C412.517 253.661 413.389 253.162 413.867 252.332L433.693 217.643C434.689 215.899 433.423 213.697 431.409 213.697C430.475 213.697 429.603 214.195 429.125 215.026L409.3 249.714C408.303 251.48 409.569 253.661 411.583 253.661Z" stroke="#66B0F0" stroke-width="6" stroke-miterlimit="10"/>
<path d="M793.401 595.745L95.0138 635.211V579.066H793.401V595.745Z" fill="#D0F0E4"/>
<path d="M761.576 535.55L131.261 575.015V518.87H761.576V535.55Z" fill="#D0F0E4"/>
<path d="M720.99 475.562L165.286 515.027V458.882H720.99V475.562Z" fill="#D0F0E4"/>
<path d="M688.999 415.989L203.194 455.455V399.31H688.999V415.989Z" fill="#D0F0E4"/>
<path d="M95.0138 579.066H793.401V633.134" stroke="#66B0F0" stroke-width="6" stroke-miterlimit="10"/>
<path d="M131.261 518.663H761.576V575.036" stroke="#66B0F0" stroke-width="6" stroke-miterlimit="10"/>
<path d="M165.286 458.675H720.99V515.028" stroke="#66B0F0" stroke-width="6" stroke-miterlimit="10"/>
<path d="M203.402 399.102H688.999V455.455" stroke="#66B0F0" stroke-width="6" stroke-miterlimit="10"/>
<path d="M645.403 359.699L246.811 394.283V345.076H645.403V359.699Z" fill="#D0F0E4"/>
<path d="M246.977 344.889H645.403V394.283" stroke="#66B0F0" stroke-width="6" stroke-miterlimit="10"/>
<path d="M203.236 457.781V328.126" stroke="#66B0F0" stroke-width="6" stroke-miterlimit="10"/>
<path d="M310.503 240.159L66.6764 440.001C58.1441 448.538 53.3485 460.108 53.3485 472.176C53.3485 497.309 73.7141 518.725 98.8337 518.725" stroke="#66B0F0" stroke-width="6" stroke-miterlimit="10"/>
<path d="M130.638 575.036V387.449" stroke="#66B0F0" stroke-width="6" stroke-miterlimit="10"/>
<path d="M688.999 458.197V328.126" stroke="#66B0F0" stroke-width="6" stroke-miterlimit="10"/>
<path d="M581.732 240.159L825.579 440.001C834.111 448.538 838.907 460.108 838.907 472.176C838.907 497.309 818.541 518.725 793.422 518.725" stroke="#66B0F0" stroke-width="6" stroke-miterlimit="10"/>
<path d="M761.617 575.036V387.449" stroke="#66B0F0" stroke-width="6" stroke-miterlimit="10"/>
<path d="M728.505 636.353C728.505 636.353 755.68 587.561 739.176 587.291C731.474 587.166 723.585 613.567 726.575 636.353H728.505Z" fill="#3FB1B5"/>
<path d="M727.322 636.084C727.322 636.084 737.411 590.407 761.783 597.781C786.156 605.155 744.553 636.084 744.553 636.084" stroke="#FFCF2D" stroke-width="6" stroke-miterlimit="10" stroke-linecap="round"/>
<path d="M694.708 636.873C686.259 636.084 681.484 620.962 691.49 615.914C705.877 608.665 710.382 623.808 707.538 624.306C704.693 624.825 700.687 605.674 713.101 606.193C725.516 606.713 725.972 636.084 725.972 636.084" stroke="#FFCF2D" stroke-width="6" stroke-miterlimit="10" stroke-linecap="round"/>
<path d="M737.536 636.084C737.536 636.084 750.511 604.553 763.154 598.259" stroke="#FFCF2D" stroke-width="6" stroke-miterlimit="10" stroke-linecap="round"/>
<path d="M723.71 619.716C723.71 619.716 720.658 602.787 720.533 591.653" stroke="#FFCF2D" stroke-width="6" stroke-miterlimit="10"/>
<path d="M727.405 599.193C726.803 600.689 722.153 604.407 722.153 604.407C722.153 604.407 721.405 598.487 722.007 596.991C722.609 595.496 724.312 594.79 725.786 595.392C727.28 595.994 728.007 597.698 727.405 599.193Z" stroke="#FFCF2D" stroke-width="6" stroke-miterlimit="10"/>
<path d="M725.848 587.291C725.246 588.787 720.596 592.505 720.596 592.505C720.596 592.505 719.848 586.585 720.45 585.09C721.052 583.594 722.755 582.888 724.229 583.49C725.723 584.113 726.45 585.796 725.848 587.291Z" stroke="#FFCF2D" stroke-width="6" stroke-miterlimit="10"/>
<path d="M715.136 600.502C716.008 601.852 721.281 604.615 721.281 604.615C721.281 604.615 720.886 598.674 720.014 597.324C719.142 595.974 717.336 595.6 715.987 596.472C714.638 597.365 714.264 599.152 715.136 600.502Z" stroke="#FFCF2D" stroke-width="6" stroke-miterlimit="10"/>
<path d="M124.306 637.205C124.306 637.205 107.615 622.125 107.947 611.303C108.321 598.923 120.154 604.906 120.777 600.44C121.421 595.995 108.279 565.585 126.569 565.814C144.859 566.042 136.347 595.205 141.309 597.906C146.27 600.585 154.491 597.386 152.27 609.185C150.049 621.003 131.572 637.06 131.572 637.06L124.306 637.205Z" fill="#3FB1B5"/>
<path d="M74.1916 636.831C63.3756 636.831 55.0509 617.057 71.7211 611.822C88.3914 606.588 90.2183 622.354 86.5853 622.956C82.9523 623.558 81.1462 592.671 111.144 596.867C143.883 601.437 123.87 636.831 123.87 636.831C123.87 636.831 143.177 604.345 125.427 566.292" stroke="#FFCF2D" stroke-width="6" stroke-miterlimit="10" stroke-linecap="round"/>
<path d="M146.54 636.831C146.54 636.831 163.48 601.354 179.735 612.653C195.99 623.953 157.833 636.831 157.833 636.831" stroke="#FFCF2D" stroke-width="6" stroke-miterlimit="10" stroke-linecap="round"/>
<path d="M152.644 636.52C152.644 636.52 169.106 614.502 179.964 612.882" stroke="#FFCF2D" stroke-width="6" stroke-miterlimit="10" stroke-linecap="round"/>
<path d="M131.863 636.624C131.863 636.624 140.769 615.873 148.658 603.576" stroke="#FFCF2D" stroke-width="6" stroke-miterlimit="10" stroke-linecap="round"/>
<path d="M150.754 616.787C149.011 617.992 141.226 618.719 141.226 618.719C141.226 618.719 144.693 611.698 146.416 610.493C148.159 609.289 150.526 609.725 151.73 611.47C152.934 613.214 152.498 615.603 150.754 616.787Z" stroke="#FFCF2D" stroke-width="6" stroke-miterlimit="10"/>
<path d="M157.647 602.621C155.903 603.826 148.118 604.553 148.118 604.553C148.118 604.553 151.585 597.532 153.308 596.327C155.052 595.123 157.419 595.559 158.623 597.304C159.827 599.048 159.391 601.437 157.647 602.621Z" stroke="#FFCF2D" stroke-width="6" stroke-miterlimit="10"/>
<path d="M160.532 590.594C159.411 592.381 152.54 596.119 152.54 596.119C152.54 596.119 152.934 588.309 154.076 586.523C155.197 584.737 157.564 584.197 159.349 585.318C161.134 586.44 161.653 588.808 160.532 590.594Z" stroke="#FFCF2D" stroke-width="6" stroke-miterlimit="10"/>
<path d="M136.347 609.351C136.326 611.47 140.105 618.324 140.105 618.324C140.105 618.324 143.966 611.511 143.987 609.413C144.008 607.295 142.305 605.571 140.188 605.571C138.091 605.55 136.368 607.232 136.347 609.351Z" stroke="#FFCF2D" stroke-width="6" stroke-miterlimit="10"/>
<path d="M144.07 595.351C144.049 597.469 147.827 604.324 147.827 604.324C147.827 604.324 151.689 597.511 151.709 595.413C151.73 593.294 150.028 591.57 147.91 591.57C145.793 591.57 144.091 593.253 144.07 595.351Z" stroke="#FFCF2D" stroke-width="6" stroke-miterlimit="10"/>
<path d="M642.227 636.873H817.192" stroke="#66B0F0" stroke-width="6" stroke-miterlimit="10"/>
<path d="M47.2659 636.873H469.4" stroke="#66B0F0" stroke-width="6" stroke-miterlimit="10"/>
<path d="M430.994 238.082C430.994 239.37 430.848 240.637 430.578 241.883C430.516 242.132 430.454 242.382 430.392 242.631C429.727 245.124 428.523 247.491 426.8 249.506C426.779 249.527 426.759 249.569 426.738 249.589C426.551 249.818 426.343 250.026 426.136 250.254C426.094 250.316 426.032 250.358 425.991 250.399C425.305 251.106 424.537 251.77 423.707 252.373C422.254 253.432 420.717 254.221 419.119 254.782C418.87 254.865 418.621 254.948 418.372 255.032C416.13 255.696 413.784 255.904 411.5 255.655C411.251 255.634 411.002 255.592 410.753 255.551C408.324 255.177 405.978 254.325 403.881 252.975C403.632 252.809 403.383 252.643 403.134 252.477C402.22 251.833 401.369 251.085 400.58 250.254C400.352 250.005 400.124 249.776 399.916 249.506C399.48 248.987 399.044 248.426 398.67 247.845L397.362 245.871L398.525 249.506L398.753 250.254L400.933 257.129L401.162 257.877L403.134 264.109L403.341 264.753L403.57 265.5L403.881 266.456L405.749 272.376L405.978 273.123L408.158 279.999L408.386 280.747L410.566 287.622L410.732 288.162L410.794 288.37L411.479 290.509L411.604 290.904C411.583 290.821 411.542 290.738 411.479 290.655C411.334 290.447 411.085 290.26 410.732 290.094C409.549 289.512 407.182 289.076 403.86 288.827C403.611 288.806 403.362 288.785 403.113 288.764C401.12 288.64 398.836 288.557 396.241 288.515C395.992 288.515 395.743 288.515 395.494 288.515C393.377 288.494 391.093 288.515 388.622 288.577C388.373 288.577 388.124 288.598 387.875 288.598C385.695 288.66 383.412 288.744 381.004 288.847C380.754 288.868 380.505 288.868 380.256 288.889C378.056 288.993 375.772 289.117 373.385 289.263C373.136 289.284 372.886 289.284 372.637 289.304C370.416 289.45 368.132 289.595 365.766 289.782C365.517 289.803 365.268 289.824 365.018 289.844C362.776 290.011 360.493 290.198 358.147 290.405C357.918 290.426 357.69 290.447 357.462 290.468C357.441 290.468 357.42 290.468 357.399 290.468C355.074 290.675 352.77 290.883 350.528 291.111C350.279 291.132 350.03 291.153 349.781 291.195C347.435 291.423 345.13 291.672 342.909 291.942C342.66 291.963 342.411 292.005 342.162 292.025C339.795 292.295 337.491 292.586 335.29 292.898C335.041 292.939 334.792 292.96 334.543 293.002C332.135 293.334 329.851 293.666 327.671 293.999C327.422 294.04 327.173 294.082 326.924 294.123C324.557 294.497 322.357 294.892 320.301 295.266C320.218 295.287 320.135 295.307 320.052 295.307C319.803 295.349 319.554 295.411 319.305 295.453C318.371 295.64 317.478 295.827 316.627 296.014C315.091 296.346 313.7 296.678 312.433 297.011C312.184 297.073 311.935 297.135 311.686 297.218C307.326 298.402 304.856 299.565 304.856 300.604V270.776H281.958C281.709 270.776 281.459 270.776 281.21 270.755C278.802 270.672 276.498 270.215 274.339 269.468C274.09 269.385 273.84 269.281 273.591 269.198C271.328 268.304 269.232 267.079 267.363 265.563C267.156 265.396 266.927 265.21 266.72 265.023C266.637 264.96 266.574 264.898 266.491 264.815C266.325 264.669 266.138 264.503 265.972 264.337C265.827 264.212 265.703 264.067 265.557 263.922C263.813 262.177 262.339 260.162 261.218 257.919C261.094 257.669 260.969 257.42 260.865 257.171C259.869 255.032 259.205 252.726 258.914 250.296C258.872 250.046 258.852 249.797 258.831 249.548C258.769 248.842 258.727 248.135 258.727 247.408C258.727 245.809 258.893 244.21 259.205 242.673C259.246 242.423 259.308 242.174 259.371 241.925C259.952 239.494 260.928 237.189 262.256 235.049C262.381 234.862 262.506 234.655 262.63 234.468L262.734 234.302L265.952 229.462L266.699 228.34L267.322 227.426L267.82 226.679L272.408 219.803L272.906 219.055L273.591 218.038L274.339 216.916L277.494 212.18L277.992 211.432L281.21 206.593L281.958 205.471L282.56 204.557L283.058 203.809L287.646 196.934L288.144 196.186L288.269 195.999C288.456 195.729 288.642 195.48 288.829 195.21C289.078 194.877 289.327 194.566 289.577 194.234C291.03 192.406 292.649 190.765 294.434 189.311C294.746 189.061 295.057 188.812 295.369 188.563C295.721 188.293 296.095 188.023 296.448 187.774C296.697 187.607 296.946 187.441 297.195 187.275C299.334 185.842 301.659 184.679 304.067 183.785C304.316 183.702 304.565 183.599 304.814 183.515C307.036 182.747 309.34 182.228 311.686 181.958C311.935 181.937 312.184 181.895 312.433 181.875C313.471 181.771 314.53 181.729 315.589 181.729H373.779L373.841 181.708L375.751 180.961L380.235 179.216L380.983 178.925L387.854 176.245L388.602 175.955L393.439 174.085L395.349 173.337L395.473 173.275L396.221 172.984L397.508 172.486L397.965 173.337L398.38 174.085L402.137 180.961L402.552 181.708L403.092 182.705L403.84 184.076L406.31 188.584L406.725 189.331L410.483 196.207L410.711 196.643L410.877 196.955L411.458 197.993L414.635 203.83L415.05 204.578L418.33 210.581L418.808 211.453L419.077 211.931L419.223 212.201L422.98 219.076L423.396 219.824L425.949 224.498L426.696 225.868L427.153 226.699L427.568 227.447L428.793 229.69C429.603 231.186 430.184 232.744 430.537 234.322C430.599 234.572 430.641 234.821 430.682 235.07C430.911 236.026 430.994 237.064 430.994 238.082Z" fill="#FE5244"/>
<g opacity="0.2">
<g opacity="0.2">
<g opacity="0.2">
<path opacity="0.2" d="M266.803 228.32V264.961C266.72 264.898 266.657 264.836 266.574 264.753C266.408 264.608 266.222 264.441 266.055 264.275V229.441L266.803 228.32Z" fill="white"/>
</g>
<g opacity="0.2">
<path opacity="0.2" d="M282.041 205.45V270.714C281.791 270.714 281.542 270.714 281.293 270.693V206.572L282.041 205.45Z" fill="white"/>
</g>
<g opacity="0.2">
<path opacity="0.2" d="M274.422 216.875V269.385C274.173 269.302 273.923 269.198 273.674 269.115V217.996L274.422 216.875Z" fill="white"/>
</g>
<g opacity="0.2">
<path opacity="0.2" d="M297.278 187.234V270.693H296.531V187.753C296.78 187.587 297.029 187.4 297.278 187.234Z" fill="white"/>
</g>
<g opacity="0.2">
<path opacity="0.2" d="M289.66 194.213V270.693H288.912V195.189C289.161 194.857 289.41 194.545 289.66 194.213Z" fill="white"/>
</g>
<g opacity="0.2">
<path opacity="0.2" d="M312.516 181.854V296.969C312.267 297.032 312.018 297.094 311.769 297.177V181.916C312.018 181.896 312.267 181.875 312.516 181.854Z" fill="white"/>
</g>
<g opacity="0.2">
<path opacity="0.2" d="M304.897 183.495V270.714H304.15V183.744C304.399 183.661 304.648 183.578 304.897 183.495Z" fill="white"/>
</g>
<g opacity="0.2">
<g opacity="0.2">
<path opacity="0.2" d="M320.115 181.667V295.266C319.865 295.308 319.616 295.37 319.367 295.411V181.667H320.115Z" fill="white"/>
</g>
</g>
<g opacity="0.2">
<path opacity="0.2" d="M335.352 181.667V292.856C335.103 292.898 334.854 292.919 334.605 292.96V181.667H335.352Z" fill="white"/>
</g>
<g opacity="0.2">
<path opacity="0.2" d="M327.733 181.667V293.957C327.484 293.999 327.235 294.04 326.986 294.082V181.667H327.733Z" fill="white"/>
</g>
<g opacity="0.2">
<path opacity="0.2" d="M350.59 181.667V291.091C350.341 291.112 350.092 291.132 349.843 291.174V181.667H350.59Z" fill="white"/>
</g>
<g opacity="0.2">
<path opacity="0.2" d="M342.971 181.667V291.901C342.722 291.922 342.473 291.963 342.224 291.984V181.667H342.971Z" fill="white"/>
</g>
<g opacity="0.2">
<path opacity="0.2" d="M365.828 181.667V289.762C365.579 289.782 365.33 289.803 365.081 289.824V181.667H365.828Z" fill="white"/>
</g>
<g opacity="0.2">
<path opacity="0.2" d="M358.209 181.667V290.385C357.981 290.405 357.752 290.426 357.524 290.447C357.503 290.447 357.483 290.447 357.462 290.447V181.667H358.209Z" fill="white"/>
</g>
<g opacity="0.2">
<g opacity="0.2">
<path opacity="0.2" d="M373.426 181.667V289.263C373.177 289.284 372.928 289.284 372.679 289.305V181.667H373.426Z" fill="white"/>
</g>
</g>
<g opacity="0.2">
<path opacity="0.2" d="M388.664 175.934V288.598C388.415 288.598 388.166 288.619 387.917 288.619V176.225L388.664 175.934Z" fill="white"/>
</g>
<g opacity="0.2">
<path opacity="0.2" d="M381.045 178.884V288.848C380.796 288.868 380.547 288.869 380.298 288.889V179.175L381.045 178.884Z" fill="white"/>
</g>
<g opacity="0.2">
<path opacity="0.2" d="M403.902 184.035V252.975C403.653 252.809 403.404 252.643 403.155 252.477V182.685L403.902 184.035Z" fill="white"/>
<path opacity="0.2" d="M403.902 266.455V288.826C403.653 288.805 403.404 288.785 403.155 288.764V264.087L403.362 264.731L403.591 265.479L403.902 266.455Z" fill="white"/>
</g>
<g opacity="0.2">
<path opacity="0.2" d="M396.283 172.86V172.964L395.536 173.255V172.86H396.283Z" fill="white"/>
<path opacity="0.2" d="M396.283 172.963V288.536C396.034 288.536 395.785 288.536 395.536 288.536V173.254L396.283 172.963Z" fill="white"/>
</g>
<g opacity="0.2">
<path opacity="0.2" d="M419.14 211.89V254.783C418.891 254.866 418.641 254.949 418.392 255.032V210.54L418.87 211.412L419.14 211.89Z" fill="white"/>
</g>
<g opacity="0.2">
<path opacity="0.2" d="M411.521 290.509V290.675C411.375 290.468 411.126 290.281 410.773 290.115V288.162L410.836 288.37L411.521 290.509Z" fill="white"/>
<path opacity="0.2" d="M411.521 197.952V255.634C411.272 255.613 411.023 255.572 410.773 255.53V196.602L410.94 196.913L411.521 197.952Z" fill="white"/>
</g>
<g opacity="0.2">
<g opacity="0.2">
<path opacity="0.2" d="M426.738 225.806V249.59C426.551 249.818 426.343 250.026 426.136 250.254C426.094 250.317 426.032 250.358 425.99 250.4V224.456L426.738 225.806Z" fill="white"/>
</g>
</g>
</g>
<g opacity="0.2">
<g opacity="0.2">
<path opacity="0.2" d="M320.384 295.224C320.301 295.245 320.218 295.266 320.135 295.266C319.886 295.307 319.637 295.37 319.388 295.411C318.454 295.598 317.561 295.785 316.71 295.972H304.897V295.224H320.384Z" fill="white"/>
</g>
<g opacity="0.2">
<path opacity="0.2" d="M408.428 280.726H304.897V279.978H408.178L408.428 280.726Z" fill="white"/>
</g>
<g opacity="0.2">
<path opacity="0.2" d="M410.836 288.349H304.897V287.601H410.607L410.774 288.141L410.836 288.349Z" fill="white"/>
</g>
<g opacity="0.2">
<g opacity="0.2">
<path opacity="0.2" d="M405.999 273.103H304.897V272.375H405.77L405.999 273.103Z" fill="white"/>
</g>
</g>
<g opacity="0.2">
<path opacity="0.2" d="M401.182 257.877H261.322C261.198 257.628 261.073 257.379 260.969 257.129H400.954L401.182 257.877Z" fill="white"/>
</g>
<g opacity="0.2">
<path opacity="0.2" d="M403.59 265.5H267.446C267.239 265.334 267.01 265.147 266.803 264.96C266.72 264.898 266.658 264.836 266.574 264.752H403.341L403.59 265.5Z" fill="white"/>
</g>
<g opacity="0.2">
<path opacity="0.2" d="M430.599 241.883C430.537 242.133 430.475 242.382 430.412 242.631H259.309C259.35 242.382 259.412 242.133 259.475 241.883H430.599Z" fill="white"/>
</g>
<g opacity="0.2">
<path opacity="0.2" d="M398.774 250.254H258.997C258.956 250.005 258.935 249.756 258.914 249.506H398.525L398.774 250.254Z" fill="white"/>
<path opacity="0.2" d="M426.821 249.506C426.8 249.527 426.779 249.569 426.759 249.589C426.572 249.818 426.364 250.026 426.157 250.254H400.601C400.373 250.005 400.144 249.776 399.937 249.506H426.821Z" fill="white"/>
</g>
<g opacity="0.2">
<path opacity="0.2" d="M427.61 227.384H267.426L267.924 226.637H427.195L427.61 227.384Z" fill="white"/>
</g>
<g opacity="0.2">
<path opacity="0.2" d="M430.724 235.008H262.36C262.485 234.821 262.609 234.613 262.734 234.426L262.838 234.26H430.578C430.641 234.51 430.682 234.759 430.724 235.008Z" fill="white"/>
</g>
<g opacity="0.2">
<g opacity="0.2">
<path opacity="0.2" d="M423.437 219.762H272.512L272.989 219.035H423.043L423.437 219.762Z" fill="white"/>
</g>
</g>
<g opacity="0.2">
<path opacity="0.2" d="M415.112 204.536H282.643L283.141 203.788H414.697L415.112 204.536Z" fill="white"/>
</g>
<g opacity="0.2">
<path opacity="0.2" d="M419.285 212.159H277.577L278.075 211.412H418.87L419.14 211.889L419.285 212.159Z" fill="white"/>
</g>
<g opacity="0.2">
<path opacity="0.2" d="M406.767 189.29H294.497C294.808 189.041 295.12 188.791 295.431 188.542H406.352L406.767 189.29Z" fill="white"/>
</g>
<g opacity="0.2">
<path opacity="0.2" d="M410.94 196.913H287.729L288.227 196.166H410.524L410.774 196.602L410.94 196.913Z" fill="white"/>
</g>
<g opacity="0.2">
<path opacity="0.2" d="M398.442 174.044H393.501L395.411 173.296H398.027L398.442 174.044Z" fill="white"/>
</g>
<g opacity="0.2">
<path opacity="0.2" d="M402.615 181.667H373.924L375.834 180.919H402.199L402.615 181.667Z" fill="white"/>
</g>
</g>
</g>
<path d="M359.351 305.548C324.225 308.269 304.96 304.945 304.939 300.542C304.939 297.385 328.128 293.002 357.524 290.447C388.56 287.767 410.69 287.892 411.645 290.904C412.974 295.1 395.722 302.723 359.351 305.548Z" fill="#FFE6CF"/>
<path d="M357.711 265.126L369.669 289.491" stroke="white" stroke-width="6" stroke-miterlimit="10"/>
<path d="M353.746 274.64C354.766 274.64 355.593 273.812 355.593 272.792C355.593 271.771 354.766 270.943 353.746 270.943C352.725 270.943 351.898 271.771 351.898 272.792C351.898 273.812 352.725 274.64 353.746 274.64Z" stroke="white" stroke-width="5" stroke-miterlimit="10"/>
<path d="M373.862 181.688L399.937 251.418" stroke="white" stroke-width="5" stroke-miterlimit="10"/>
<path d="M258.914 243.774C264.187 240.72 271.785 244.002 275.875 251.106C279.965 258.189 279.01 266.414 273.737 269.468" stroke="white" stroke-width="5" stroke-miterlimit="10" stroke-linecap="round"/>
<path d="M430.35 242.839C429.312 246.557 427.049 249.963 423.728 252.373C418.787 255.966 412.621 256.589 407.327 254.658C406.144 250.005 409.59 244.438 415.61 241.634C421.174 239.058 427.195 239.681 430.35 242.839Z" stroke="white" stroke-width="5" stroke-miterlimit="10"/>
<path d="M357.711 289.969L357.462 181.667" stroke="white" stroke-width="6" stroke-miterlimit="10"/>
<path d="M363.794 206.115C364.814 206.115 365.641 205.287 365.641 204.266C365.641 203.245 364.814 202.417 363.794 202.417C362.773 202.417 361.946 203.245 361.946 204.266C361.946 205.287 362.773 206.115 363.794 206.115Z" stroke="white" stroke-width="5" stroke-miterlimit="10"/>
<path d="M363.794 228.922C364.814 228.922 365.641 228.094 365.641 227.073C365.641 226.052 364.814 225.225 363.794 225.225C362.773 225.225 361.946 226.052 361.946 227.073C361.946 228.094 362.773 228.922 363.794 228.922Z" stroke="white" stroke-width="5" stroke-miterlimit="10"/>
<path d="M363.794 251.729C364.814 251.729 365.641 250.901 365.641 249.88C365.641 248.859 364.814 248.032 363.794 248.032C362.773 248.032 361.946 248.859 361.946 249.88C361.946 250.901 362.773 251.729 363.794 251.729Z" stroke="white" stroke-width="5" stroke-miterlimit="10"/>
<path d="M330.661 181.314L357.628 196.789L371.994 181.127" stroke="white" stroke-width="5" stroke-miterlimit="10"/>
<path d="M420.468 459.007L372.471 459.028L375.689 448.746H420.261L420.468 459.007Z" fill="white" stroke="#FE5244" stroke-width="5" stroke-miterlimit="10"/>
<path d="M431.679 340.111C439.111 352.408 441.249 367.197 437.637 381.093L422.108 440.77L420.032 448.746H375.71L378.99 438.298L397.446 378.455L344.611 291.714C348.722 291.257 353.04 290.821 357.503 290.447C375.814 288.868 391.01 288.266 400.601 288.64L431.679 340.111Z" fill="white" stroke="#9A3B82" stroke-width="6" stroke-miterlimit="10" stroke-linecap="round"/>
<path d="M484.99 459.007L420.468 459.027L420.261 448.683L420.302 448.746L455.802 432.274C475.835 438.485 484.492 447.52 488.146 453.336C489.682 455.808 487.897 459.007 484.99 459.007Z" fill="white" stroke="#FE5244" stroke-width="5" stroke-miterlimit="10"/>
<path d="M455.802 432.274L420.302 448.745L325.927 319.506C322.813 315.248 320.384 310.595 318.682 305.672C317.603 302.556 316.814 299.337 316.336 296.055C325.907 293.957 340.708 291.9 357.524 290.446C361.759 290.073 365.807 289.761 369.669 289.512L378.097 303.47L455.802 432.274Z" fill="white" stroke="#9A3B82" stroke-width="6" stroke-miterlimit="10" stroke-linecap="round"/>
<path d="M351.857 302.889L435.187 441.039" stroke="#9A3B82" stroke-width="6" stroke-miterlimit="10" stroke-linecap="round"/>
<path d="M345.961 297.53C345.961 297.53 345.338 312.776 332.176 318.156" stroke="#9A3B82" stroke-width="6" stroke-miterlimit="10" stroke-linecap="round"/>
<path d="M400.622 288.64L405.397 296.574C399.895 299.025 390.823 301.559 378.076 303.45C372.534 304.281 366.285 304.987 359.33 305.527C355.822 305.797 352.479 306.005 349.303 306.171C336.349 306.815 326.052 306.524 318.661 305.672C317.582 302.557 316.793 299.337 316.315 296.055C316.315 296.055 337.055 292.108 358.479 290.364C379.903 288.619 400.622 288.64 400.622 288.64Z" fill="#9A3B82"/>
<path d="M304.378 300.728C304.378 297.571 326.654 292.96 357.524 290.26C388.56 287.539 411.251 287.892 412.206 290.904" stroke="white" stroke-width="5" stroke-miterlimit="10" stroke-linecap="round"/>
<path d="M359.662 181.688H331.781L335.622 161.436H359.662V181.688Z" fill="#FFCF2D"/>
<path d="M338.715 181.688H331.781L335.622 161.436H359.662V168.581L338.715 181.688Z" fill="#FFE6CF"/>
<path d="M335.518 164.468C335.518 164.468 339.338 142.741 339.836 141.516C340.688 139.439 358.271 132.75 360.97 135.222C363.669 137.694 358.209 139.896 361.136 139.667C364.063 139.439 372.886 132.875 376.582 137.881C378.824 140.934 371.599 145.338 366.97 146.231C362.34 147.124 349.324 154.103 349.012 156.575C348.701 159.047 344.528 163.99 335.518 164.468Z" fill="white" stroke="#FFCF2D" stroke-width="5" stroke-miterlimit="10"/>
<path d="M366.97 145.857V164.26C366.97 167.127 364.645 169.433 361.8 169.433H355.22C351.794 169.433 349.033 166.649 349.033 163.222V161.415H345.836C344.798 161.415 343.864 160.999 343.179 160.314C342.494 159.628 342.078 158.694 342.078 157.655C342.078 155.578 343.76 153.895 345.836 153.895H349.448C350.403 150.904 352.915 148.578 356.133 147.955L366.97 145.857Z" fill="#FFCF2D"/>
<path d="M348.286 158.465C348.286 156.762 347.268 155.495 345.587 155.765" stroke="#FFE6CF" stroke-width="4" stroke-miterlimit="10" stroke-linecap="round"/>
<path d="M360.202 152.525C360.202 152.525 362.361 151.299 364.79 151.071" stroke="#FFE6CF" stroke-width="4" stroke-miterlimit="10" stroke-linecap="round"/>
<path d="M363.191 156.534C363.65 156.534 364.022 155.929 364.022 155.183C364.022 154.438 363.65 153.833 363.191 153.833C362.733 153.833 362.361 154.438 362.361 155.183C362.361 155.929 362.733 156.534 363.191 156.534Z" fill="#FFE6CF"/>
<path d="M347.165 247.865L342.265 249.735L341.829 249.901L338.466 251.168V241.904H297.797L306.849 226.512L307.222 225.868L311.686 224.186L312.558 223.854L315.983 222.545L316.647 222.296L321.921 220.281L322.792 219.949L326.156 218.681L326.986 218.37L330.598 216.999C330.681 216.957 330.764 216.937 330.847 216.916C331.117 216.833 331.387 216.771 331.657 216.75C331.989 216.708 332.321 216.708 332.633 216.729C333.629 216.812 334.563 217.248 335.29 217.934C335.788 218.391 336.183 218.972 336.432 219.637L347.165 247.865Z" fill="white"/>
<path d="M340.874 229.961L336.909 219.471C336.639 218.765 336.224 218.142 335.726 217.664C334.895 216.854 333.774 216.355 332.612 216.272C332.238 216.251 331.864 216.251 331.512 216.314C331.159 216.355 330.806 216.459 330.474 216.584L326.861 217.955L325.989 218.287L322.668 219.554L321.796 219.886L316.606 221.86L315.734 222.192L312.392 223.459L311.52 223.791L307.596 225.287L307.222 225.931L306.849 226.575L311.893 224.664L312.765 224.332L322.128 220.78L323 220.447L330.494 217.602L330.764 217.498C330.889 217.456 331.013 217.415 331.138 217.373C331.387 217.311 331.615 217.269 331.864 217.248C331.989 217.248 332.093 217.228 332.217 217.228C333.857 217.228 335.414 218.225 336.037 219.866L346.563 247.658L342.514 249.195L342.078 249.361L341.642 249.527L338.445 250.732V251.729L341.975 250.4L347.746 248.198L340.874 229.961Z" fill="#3FB1B5"/>
<path d="M347.165 247.865L342.245 249.735L330.868 219.72C330.349 218.37 331.034 216.854 332.384 216.334C333.733 215.815 335.249 216.501 335.768 217.851L347.165 247.865Z" fill="#3FB1B5"/>
<path d="M341.975 250.316L330.432 219.866C329.83 218.266 330.64 216.48 332.217 215.877C332.986 215.587 333.837 215.607 334.584 215.94C335.331 216.272 335.913 216.895 336.203 217.664L347.746 248.115L341.975 250.316ZM333.339 216.625C333.089 216.625 332.819 216.667 332.57 216.771C331.449 217.186 330.889 218.453 331.325 219.554L342.535 249.133L346.583 247.595L335.373 218.017C335.165 217.477 334.771 217.041 334.231 216.812C333.941 216.687 333.629 216.625 333.339 216.625Z" fill="#3FB1B5"/>
<path d="M325.034 222.878C324.536 222.878 323.996 222.691 323.498 222.338C322.792 221.839 322.232 221.07 321.879 220.157C321.526 219.243 321.443 218.266 321.651 217.435C321.858 216.542 322.377 215.898 323.083 215.628C324.515 215.088 326.218 216.231 326.965 218.225C327.048 218.474 326.944 218.744 326.695 218.827C326.446 218.91 326.176 218.806 326.093 218.557C325.533 217.103 324.308 216.168 323.394 216.501C322.979 216.667 322.668 217.062 322.543 217.643C322.398 218.287 322.46 219.056 322.751 219.803C323.041 220.551 323.498 221.174 324.038 221.569C324.536 221.922 325.034 222.026 325.45 221.86C325.699 221.777 325.969 221.881 326.052 222.13C326.135 222.379 326.031 222.649 325.782 222.732C325.533 222.836 325.284 222.878 325.034 222.878Z" fill="#3FB1B5"/>
<path d="M314.717 226.637C314.219 226.637 313.679 226.45 313.181 226.097C312.475 225.599 311.914 224.83 311.561 223.916C311.208 223.002 311.125 222.026 311.333 221.195C311.54 220.302 312.06 219.658 312.765 219.388C313.471 219.118 314.281 219.263 315.028 219.783C315.734 220.281 316.295 221.05 316.648 221.964C316.731 222.213 316.627 222.483 316.378 222.566C316.129 222.649 315.859 222.545 315.776 222.296C315.485 221.548 315.028 220.925 314.488 220.53C313.99 220.177 313.492 220.073 313.077 220.24C312.662 220.406 312.35 220.8 312.226 221.382C312.08 222.026 312.143 222.795 312.433 223.542C312.724 224.29 313.181 224.913 313.72 225.308C314.219 225.661 314.717 225.765 315.132 225.599C315.381 225.516 315.651 225.619 315.734 225.869C315.817 226.118 315.713 226.388 315.464 226.471C315.215 226.596 314.966 226.637 314.717 226.637Z" fill="#3FB1B5"/>
<path d="M338.508 270.693C341.42 270.693 343.781 264.248 343.781 256.298C343.781 248.348 341.42 241.904 338.508 241.904C335.596 241.904 333.235 248.348 333.235 256.298C333.235 264.248 335.596 270.693 338.508 270.693Z" fill="#73325A"/>
<path d="M357.441 244.854V260.432C357.441 261.679 356.797 262.842 355.738 263.506L349.095 267.453H335.145C333.961 264.815 333.214 260.806 333.214 256.34C333.214 253.121 333.608 250.13 334.252 247.741H347.621L345.566 242.299C344.964 240.741 346.417 239.162 348.016 239.599L354.783 241.385C356.361 241.8 357.441 243.213 357.441 244.854Z" fill="#FFCF2D"/>
<path d="M357.067 255.572C357.067 256.818 356.423 257.981 355.365 258.646L349.095 262.592" stroke="#73325A" stroke-width="4" stroke-miterlimit="10" stroke-linecap="round"/>
<path d="M357.067 249.818C357.067 251.064 356.423 252.227 355.365 252.892L349.095 256.839" stroke="#73325A" stroke-width="4" stroke-miterlimit="10" stroke-linecap="round"/>
<path d="M357.067 244.417C357.067 245.664 356.423 246.827 355.365 247.492L349.095 251.438" stroke="#73325A" stroke-width="4" stroke-miterlimit="10" stroke-linecap="round"/>
<path d="M350.735 245.747L347.6 247.699" stroke="#73325A" stroke-width="4" stroke-miterlimit="10" stroke-linecap="round"/>
<path d="M343.781 256.299C343.781 260.785 343.033 264.794 341.85 267.432H335.145C333.961 264.794 333.214 260.785 333.214 256.299C333.214 253.079 333.608 250.088 334.252 247.699H342.722C343.386 250.088 343.781 253.079 343.781 256.299Z" fill="#FFE6CF"/>
<path d="M313.45 216.397L298.524 241.551" stroke="white" stroke-width="5" stroke-miterlimit="10"/>
<path d="M338.321 241.551C335.414 241.551 333.048 248.634 333.048 256.694C333.048 264.753 335.414 271.275 338.321 271.275H304.897" stroke="white" stroke-width="5" stroke-miterlimit="10" stroke-linecap="round"/>
<path d="M374.547 154.726L394.228 179.174L383.059 190.516L358.334 171.198C357.607 170.492 358.188 168.622 359.683 166.296C360.762 164.593 362.319 162.661 364.209 160.75C366.098 158.839 368.008 157.24 369.689 156.139C371.973 154.643 373.82 154.041 374.547 154.726Z" fill="#3FB1B5" stroke="#3FB1B5" stroke-width="5" stroke-miterlimit="10" stroke-linecap="round"/>
<path d="M390.723 186.974C393.804 183.844 395.356 180.373 394.187 179.222C393.019 178.071 389.575 179.675 386.493 182.805C383.412 185.935 381.861 189.406 383.029 190.557C384.197 191.708 387.642 190.104 390.723 186.974Z" fill="white" stroke="#3FB1B5" stroke-width="6" stroke-miterlimit="10"/>
<path d="M379.322 177.492V179.071C379.322 180.358 376.042 180.982 375.149 180.047L367.385 171.904C366.804 171.281 366.471 170.471 366.471 169.62V164.925C366.471 163.72 367.032 162.599 367.987 161.872L370.748 159.774C371.412 159.255 372.243 158.985 373.073 158.985H380.567C382.643 158.985 384.553 160.127 385.508 161.955L392.11 174.397H382.374C380.692 174.418 379.322 175.789 379.322 177.492Z" fill="#FFCF2D"/>
<path d="M391.965 174.418H382.602C380.9 174.418 379.509 175.809 379.509 177.513V179.091C379.509 180.379 376.602 181.002 375.71 180.068L367.094 171.094" stroke="#73325A" stroke-width="4" stroke-miterlimit="10" stroke-linecap="round"/>
<path d="M370.271 174.418C369.689 173.815 369.378 173.026 369.378 172.195V167.626C369.378 166.442 369.918 165.341 370.852 164.634L373.551 162.578C374.215 162.08 375.004 161.81 375.834 161.81H381.107" stroke="#73325A" stroke-width="4" stroke-miterlimit="10" stroke-linecap="round"/>
<path d="M373.26 177.575C372.679 176.973 372.367 176.183 372.367 175.352V170.783C372.367 169.599 372.907 168.498 373.841 167.792L376.54 165.735C377.204 165.237 377.993 164.967 378.824 164.967H383.536" stroke="#73325A" stroke-width="4" stroke-miterlimit="10" stroke-linecap="round"/>
<path d="M376.519 180.192C375.979 179.631 375.689 178.904 375.689 178.136V173.898C375.689 172.818 376.187 171.78 377.059 171.136L379.55 169.225C380.152 168.768 380.9 168.519 381.647 168.519H384.802" stroke="#73325A" stroke-width="4" stroke-miterlimit="10" stroke-linecap="round"/>
<path d="M537.16 335.853H618.498C634.94 335.853 650.302 343.954 659.603 357.497L696.867 412.416C699.94 416.882 697.158 422.968 691.739 422.968H650.261L633.694 401.304C631.743 398.562 627.425 399.767 627.155 403.132L623.813 443.927H535.105L527.632 402.446C527.175 399.206 522.981 398.209 521.092 400.888L505.875 420.497H456.279L494.976 359.138C504.131 344.639 520.054 335.853 537.16 335.853Z" fill="white" stroke="#3FB1B5" stroke-width="6" stroke-miterlimit="10" stroke-linecap="round"/>
<path d="M586.715 357.04L599.897 400.847H567.325L581.794 357.04H586.715Z" fill="#FE5244"/>
<g opacity="0.2">
<g opacity="0.2">
<g opacity="0.2">
<path opacity="0.2" d="M576.21 373.969V400.847H575.338V376.607L575.629 375.714L576.21 373.969Z" fill="white"/>
</g>
<g opacity="0.2">
<path opacity="0.2" d="M585.49 357.144H584.618V400.847H585.49V357.144Z" fill="white"/>
</g>
<g opacity="0.2">
<path opacity="0.2" d="M594.769 383.794V400.847H593.897V380.886L594.769 383.794Z" fill="white"/>
</g>
</g>
<g opacity="0.2">
<g opacity="0.2">
<path opacity="0.2" d="M598.195 395.176H569.193L569.484 394.283H597.925L598.195 395.176Z" fill="white"/>
</g>
<g opacity="0.2">
<path opacity="0.2" d="M595.392 385.892H572.266L572.556 384.999H595.122L595.392 385.892Z" fill="white"/>
</g>
<g opacity="0.2">
<path opacity="0.2" d="M592.61 376.607H575.338L575.629 375.714H592.341L592.61 376.607Z" fill="white"/>
</g>
<g opacity="0.2">
<path opacity="0.2" d="M589.808 367.322H578.411L578.701 366.429H589.538L589.808 367.322Z" fill="white"/>
</g>
<g opacity="0.2">
<path opacity="0.2" d="M587.005 358.037H581.483L581.774 357.144H586.756L587.005 358.037Z" fill="white"/>
</g>
</g>
</g>
<path d="M592.61 356.583L597.925 362.295L615.052 335.853H599.876L592.61 356.583Z" fill="white" stroke="#3FB1B5" stroke-width="6" stroke-miterlimit="10" stroke-linecap="round"/>
<path d="M576.853 356.583L571.518 362.295L552.959 335.853H569.567L576.853 356.583Z" fill="white" stroke="#3FB1B5" stroke-width="6" stroke-miterlimit="10" stroke-linecap="round"/>
<path d="M703.386 427.995C703.386 438.339 696.016 448.144 684.557 449.826L637.577 456.743L627.259 458.259V418.295L630.435 417.547L676.273 406.663C685.117 404.565 694.335 408.117 699.483 415.616C702.161 419.479 703.386 423.779 703.386 427.995Z" fill="#FFE6CF"/>
<path d="M637.577 456.743L627.259 458.259V418.295L630.435 417.547L637.577 456.743Z" fill="#73325A"/>
<path d="M627.259 468.479H528.503V409.177C528.503 404.565 532.24 400.847 536.828 400.847H618.913C623.522 400.847 627.238 404.586 627.238 409.177V468.479H627.259Z" fill="#FFCF2D"/>
<path d="M583.974 439.399H571.788C570.542 439.399 569.546 438.402 569.546 437.156V432.046C569.546 430.8 570.542 429.803 571.788 429.803H583.974C585.22 429.803 586.216 430.8 586.216 432.046V437.156C586.216 438.402 585.199 439.399 583.974 439.399Z" stroke="white" stroke-width="5" stroke-miterlimit="10"/>
<path d="M563.193 467.835L667.741 452.194C688.086 449.099 706.417 464.864 706.417 485.47C706.417 504.06 691.366 519.119 672.785 519.119H563.878L563.193 467.835Z" fill="#0096A0"/>
<path d="M549.056 528.28L486.132 540.431C478.119 542.134 470.064 535.446 469.711 526.805L468.777 503.832C468.3 492.2 479.448 485.2 489.952 490.185L549.056 528.28Z" fill="white" stroke="#FE5244" stroke-width="6" stroke-miterlimit="10"/>
<path d="M490.388 539.6C482.645 541.22 474.818 534.718 474.445 526.306L473.469 503.998C472.971 492.698 483.724 485.968 493.897 490.829" stroke="#FE5244" stroke-width="6" stroke-miterlimit="10"/>
<path d="M489.952 490.164L549.056 528.28L535.583 530.876L489.952 490.164Z" fill="#FE5244"/>
<path d="M512.726 506.864L504.941 522.38L497.239 504.143L488.333 524.624" stroke="#FE5244" stroke-width="6" stroke-miterlimit="10" stroke-linejoin="round"/>
<path d="M487.897 501.297L496.616 523.066L505.149 505.68L511.771 520.179" stroke="#FE5244" stroke-width="6" stroke-miterlimit="10" stroke-linejoin="round"/>
<path d="M597.925 499.802C594.437 496.935 584.348 503.458 575.38 514.363C566.411 525.268 561.969 536.443 565.456 539.309C564.937 538.998 499.398 497.87 458.729 469.808C448.391 462.683 442.931 451.259 442.931 439.689C442.931 431.63 445.588 423.508 451.089 416.716C464.874 399.704 490.409 398.562 505.667 414.265L597.925 499.802Z" fill="#3FB1B5"/>
<path d="M587.981 524.736C596.946 513.83 601.385 502.662 597.897 499.791C594.408 496.92 584.312 503.433 575.347 514.34C566.381 525.246 561.942 536.414 565.431 539.285C568.92 542.156 579.015 535.643 587.981 524.736Z" fill="#FE5244" stroke="white" stroke-width="6" stroke-miterlimit="10"/>
<path d="M626.781 535.695L615.114 555.511C609.198 565.544 595.828 565.731 589.704 555.843L570.065 524.188C571.747 521.404 573.823 518.496 576.21 515.588C580.528 510.333 585.116 506.096 589.102 503.437L620.366 515.339C628.006 518.268 631.162 528.238 626.781 535.695Z" fill="white" stroke="#FE5244" stroke-width="6" stroke-miterlimit="10"/>
<path d="M617.066 514.051C624.29 516.855 626.844 526.223 622.712 533.389L611.71 552.395C606.146 562.033 593.544 562.199 587.752 552.728" stroke="#FE5244" stroke-width="6" stroke-miterlimit="10"/>
<path d="M578.701 524.208L594.603 516.149L589.828 535.321L608.845 523.647" stroke="#FE5244" stroke-width="6" stroke-miterlimit="10" stroke-linejoin="round"/>
<path d="M595.87 543.006L600.811 520.677L584.597 528.674L587.088 513.843" stroke="#FE5244" stroke-width="6" stroke-miterlimit="10" stroke-linejoin="round"/>
<path d="M608.263 339.447C608.18 340.776 607.599 341.96 606.686 342.812C605.772 343.663 604.568 344.183 603.239 344.183H598.652L598.361 349.022C598.112 353.01 594.147 357.082 590.015 357.082H578.411C574.3 357.082 570.314 353.01 570.065 349.022L569.774 344.183H565.124C563.795 344.183 562.571 343.663 561.678 342.812C560.765 341.96 560.183 340.776 560.1 339.426C559.934 336.518 562.322 334.108 565.228 334.108H569.152L568.716 326.735C568.633 325.177 569.857 323.868 571.414 323.868H597.032C598.589 323.868 599.814 325.177 599.731 326.735L599.295 334.108H603.26C606.125 334.129 608.429 336.559 608.263 339.447Z" fill="#FFE6CF"/>
<path d="M599.274 334.108H603.447C603.447 334.108 607.433 319.631 603.593 315.913C599.752 312.194 576.169 303.637 568.55 308.975C562.986 312.88 566.017 334.108 566.017 334.108H569.089C569.089 334.108 581.483 325.218 583.435 325.987C585.386 326.755 577.829 330.494 579.345 331.221C585.012 333.942 595.206 324.076 597.551 324.076C599.897 324.076 599.274 334.108 599.274 334.108Z" fill="#73325A"/>
<path d="M594.022 337.702C594.022 337.702 591.302 335.5 587.815 336.933" stroke="#73325A" stroke-width="4" stroke-miterlimit="10" stroke-linecap="round"/>
<path d="M588.458 349.542C588.458 349.542 586.964 352.74 582.438 351.079" stroke="#73325A" stroke-width="4" stroke-miterlimit="10" stroke-linecap="round"/>
<path d="M573.345 336.975C573.345 336.975 578.847 335.749 580.507 339.156C581.525 341.254 581.026 348.586 582.21 348.669C583.393 348.752 585.178 348.669 585.178 348.669" stroke="#73325A" stroke-width="4" stroke-miterlimit="10" stroke-linecap="round"/>
<path d="M590.306 343.352C590.845 343.352 591.282 342.626 591.282 341.731C591.282 340.837 590.845 340.111 590.306 340.111C589.767 340.111 589.33 340.837 589.33 341.731C589.33 342.626 589.767 343.352 590.306 343.352Z" fill="#73325A"/>
<path d="M577.684 343.352C578.223 343.352 578.66 342.626 578.66 341.731C578.66 340.837 578.223 340.111 577.684 340.111C577.145 340.111 576.708 340.837 576.708 341.731C576.708 342.626 577.145 343.352 577.684 343.352Z" fill="#73325A"/>
<path d="M568.134 340.194C568.01 338.158 566.328 336.58 564.294 336.58" stroke="#73325A" stroke-width="4" stroke-miterlimit="10" stroke-linecap="round"/>
<path d="M600.001 340.298C600.126 338.138 601.911 336.456 604.049 336.456" stroke="#73325A" stroke-width="4" stroke-miterlimit="10" stroke-linecap="round"/>
<path d="M293.064 380.512C293.064 379.162 293.002 377.853 292.898 376.628C291.632 376.067 283.639 372.224 281.625 365.307C281.625 365.307 275.563 377.583 266.554 376.171C266.533 376.171 266.512 376.171 266.491 376.15C266.491 376.15 266.491 376.15 266.47 376.15L264.291 375.028C264.249 375.008 264.228 374.987 264.187 374.987C261.716 373.803 258.872 375.34 258.374 377.916C257.793 376.295 257.378 374.571 257.129 372.764C255.53 360.675 262.194 350.56 273.259 350.56C283.348 350.56 293.043 360.052 294.579 370.085C295.202 373.886 294.559 377.438 293.064 380.512Z" fill="#FFCF2D"/>
<path d="M260.16 381.966C259.184 387.699 237.801 379.702 233.047 389.277C229.954 395.53 234.729 403.07 221.297 403.713C205.291 404.461 198.793 413.227 201.388 433.541L245.109 410.34L257.315 399.455L262.63 383.108L260.16 381.966Z" fill="#FFCF2D"/>
<path d="M285.072 395.468V401.159L271.557 409.343L257.315 399.476L262.63 383.129L285.072 395.468Z" fill="#FFE6CF"/>
<path d="M265.08 384.417L271.557 409.343L285.072 401.159V395.467L265.08 384.417Z" fill="#9A3B82"/>
<path d="M293.064 380.636C293.064 389.921 287.106 397.461 279.757 397.461C273.736 397.461 268.401 392.414 266.657 385.476L260.575 382.361C259.89 382.007 259.329 381.488 258.935 380.844C258.54 380.221 258.333 379.473 258.333 378.705C258.333 375.631 261.571 373.657 264.311 375.049L266.574 376.191V376.171C275.584 377.562 281.646 365.307 281.646 365.307C283.66 372.224 291.652 376.046 292.919 376.628C293.023 377.895 293.064 379.224 293.064 380.636Z" fill="#FFE6CF"/>
<path d="M293.023 378.705C293.023 378.705 289.68 377.313 287.625 379.39C285.071 381.966 285.632 389.361 285.632 389.361" stroke="#9A3B82" stroke-width="4" stroke-miterlimit="10" stroke-linecap="round"/>
<path d="M281.023 378.269C281.023 378.269 278.262 378.061 275.522 379.515" stroke="#9A3B82" stroke-width="4" stroke-miterlimit="10" stroke-linecap="round"/>
<path d="M264.685 380.325C264.457 378.954 263.46 377.832 262.132 377.417" stroke="#9A3B82" stroke-width="4" stroke-miterlimit="10" stroke-linecap="round"/>
<path d="M280.116 383.274C280.35 382.41 280.118 381.596 279.598 381.455C279.078 381.314 278.467 381.9 278.233 382.763C277.999 383.627 278.231 384.441 278.751 384.583C279.271 384.724 279.882 384.138 280.116 383.274Z" fill="#9A3B82"/>
<path d="M290.288 383.689C290.522 382.825 290.29 382.011 289.77 381.87C289.25 381.729 288.639 382.315 288.405 383.178C288.171 384.042 288.403 384.857 288.923 384.998C289.443 385.139 290.054 384.553 290.288 383.689Z" fill="#9A3B82"/>
<path d="M284.615 391.853C284.615 391.853 281.023 392.808 279.985 389.776" stroke="#9A3B82" stroke-width="4" stroke-miterlimit="10" stroke-linecap="round"/>
<path d="M230.743 410.402H311.603C322.689 410.402 332.757 416.945 337.241 427.103L352.521 458.551L215.359 524.998L171.161 506.055L195.222 435.598C200.537 420.497 214.757 410.402 230.743 410.402Z" fill="white" stroke="#FE5244" stroke-width="5" stroke-miterlimit="10"/>
<path d="M268.65 424.278L261.945 420.31L271.245 409.717H271.91L281.335 419.604L274.795 423.571L302.863 481.441L249.572 507.509L268.65 424.278Z" fill="#FE5244"/>
<g opacity="0.2">
<g opacity="0.2">
<g opacity="0.2">
<path opacity="0.2" d="M257.523 472.821V496.376H256.693V476.435L257.523 472.821Z" fill="white"/>
</g>
<g opacity="0.2">
<path opacity="0.2" d="M266.263 434.622V496.355H265.433V438.236L265.952 435.993L266.139 435.162L266.263 434.622Z" fill="white"/>
<path opacity="0.2" d="M266.263 415.367V422.865L265.433 422.387V416.322L266.263 415.367Z" fill="white"/>
</g>
<g opacity="0.2">
<path opacity="0.2" d="M275.024 412.999V495.067L274.193 495.462V412.126L275.024 412.999Z" fill="white"/>
</g>
<g opacity="0.2">
<path opacity="0.2" d="M283.784 442.1V490.767L282.954 491.183V440.396L283.784 442.1Z" fill="white"/>
</g>
<g opacity="0.2">
<path opacity="0.2" d="M292.545 460.15V486.488L291.715 486.903V458.426L292.545 460.15Z" fill="white"/>
</g>
<g opacity="0.2">
<path opacity="0.2" d="M301.285 478.2V482.209L300.455 482.604V476.497L301.285 478.2Z" fill="white"/>
</g>
</g>
<g opacity="0.2">
<g opacity="0.2">
<path opacity="0.2" d="M272.138 496.479L270.436 497.31H251.918L252.105 496.479H272.138Z" fill="white"/>
</g>
<g opacity="0.2">
<path opacity="0.2" d="M290.033 487.714L288.331 488.545H253.911L254.118 487.714H290.033Z" fill="white"/>
</g>
<g opacity="0.2">
<path opacity="0.2" d="M302.053 479.779H255.925L256.112 478.948H301.659L302.053 479.779Z" fill="white"/>
</g>
<g opacity="0.2">
<path opacity="0.2" d="M297.818 471.035H257.938L258.125 470.204H297.403L297.818 471.035Z" fill="white"/>
</g>
<g opacity="0.2">
<path opacity="0.2" d="M293.562 462.269H259.931L260.139 461.438H293.168L293.562 462.269Z" fill="white"/>
</g>
<g opacity="0.2">
<path opacity="0.2" d="M289.307 453.503H261.945L262.132 452.672H288.912L289.307 453.503Z" fill="white"/>
</g>
<g opacity="0.2">
<path opacity="0.2" d="M285.072 444.759H263.959L264.146 443.928H284.657L285.072 444.759Z" fill="white"/>
</g>
<g opacity="0.2">
<path opacity="0.2" d="M280.816 435.993H265.952L266.138 435.163H280.421L280.816 435.993Z" fill="white"/>
</g>
<g opacity="0.2">
<path opacity="0.2" d="M276.581 427.227H267.965L268.152 426.396H276.166L276.581 427.227Z" fill="white"/>
</g>
<g opacity="0.2">
<path opacity="0.2" d="M280.255 418.483H263.544L264.27 417.652H279.467L280.255 418.483Z" fill="white"/>
</g>
</g>
</g>
<path d="M227.857 455.477L221.338 477.494" stroke="#FE5244" stroke-width="5" stroke-miterlimit="10"/>
<path d="M296.49 410.361L281.106 419.168L271.91 409.717H271.245L262.152 419.895L245.109 410.361L257.523 399.477L271.557 409.343L285.072 401.159L296.49 410.361Z" fill="white" stroke="#FE5244" stroke-width="5" stroke-miterlimit="10" stroke-linejoin="round"/>
<path d="M378.824 436.159L362.714 487.381H264.727L280.837 436.159H378.824Z" fill="#3FB1B5"/>
<path d="M316.834 487.381L332.944 436.159" stroke="white" stroke-width="6" stroke-miterlimit="10"/>
<path d="M282.684 436.158C282.684 436.158 294.953 428.868 312.724 429.989C330.494 431.09 332.986 436.158 332.986 436.158H282.684Z" fill="white" stroke="#3FB1B5" stroke-width="5" stroke-miterlimit="10" stroke-linecap="round"/>
<path d="M375.274 436.158C375.274 436.158 352.147 425.939 332.986 436.158H375.274Z" fill="white" stroke="#3FB1B5" stroke-width="5" stroke-miterlimit="10" stroke-linecap="round"/>
<path d="M330.432 540.93L282.809 578.568C277.12 583.054 276.373 591.404 281.169 596.826L313.886 633.965C313.886 633.965 317 631.659 315.962 622.395C314.509 609.579 318.038 597.594 318.038 597.594L388.519 547.307C399.418 539.538 405.978 527.034 406.165 513.636C406.434 495.44 384.387 486.218 371.62 499.158L330.432 540.93Z" fill="#FFE6CF"/>
<path d="M318.018 597.573C318.018 597.573 314.509 609.559 315.942 622.374C316.98 631.659 313.866 633.965 313.866 633.965L281.148 596.826C276.352 591.384 277.12 583.054 282.788 578.568L298.067 566.479C298.524 566.146 298.981 565.793 299.437 565.44L318.869 550.069L330.411 540.93C330.411 540.93 329.768 556.114 336.909 584.093L318.018 597.573Z" fill="white" stroke="#9A3B82" stroke-width="6" stroke-miterlimit="10" stroke-linecap="round"/>
<path d="M316.71 623.621C317.104 627.214 316.855 629.811 316.377 631.639C316.274 632.075 316.149 632.449 316.004 632.802C315.194 634.941 314.135 635.647 314.135 635.647L280.214 597.158C275.813 592.152 275.937 584.778 280.151 579.938C280.67 579.336 281.272 578.754 281.937 578.235L283.037 577.363L292.587 569.823C291.964 573.977 294.642 580.935 299.79 587.499C306.309 595.808 314.966 600.232 318.744 597.947C318.142 600.149 315.381 611.76 316.71 623.621Z" fill="#FFCF2D"/>
<path d="M316.398 631.639C316.295 632.075 316.17 632.449 316.025 632.802L282.352 594.583C279.861 591.758 278.677 588.123 279.01 584.363C279.155 582.805 279.549 581.289 280.172 579.918C280.691 579.316 281.293 578.734 281.958 578.215L283.058 577.342C281.335 579.316 280.276 581.767 280.048 584.446C279.736 587.915 280.836 591.28 283.141 593.897L316.398 631.639Z" fill="white"/>
<path d="M317.374 604.262C317.374 604.262 308.24 600.627 307.015 604.262C305.811 607.897 316.689 610.203 316.689 610.203L317.374 604.262Z" fill="white"/>
<path d="M375.689 491.639V605.446C362.465 618.885 344.902 611.656 344.902 611.656C329.394 566.998 330.432 542.197 330.432 542.197L318.889 551.315C289.369 532.87 286.961 490.434 286.898 489.417L334.999 466.132C353.829 457.013 375.689 470.722 375.689 491.639Z" fill="#FFE6CF"/>
<path d="M335.02 466.111C353.829 457.013 375.689 470.722 375.689 491.618V605.425C362.465 618.864 344.902 611.636 344.902 611.636C329.415 566.977 330.432 542.155 330.432 542.155" stroke="#9A3B82" stroke-width="6" stroke-miterlimit="10" stroke-linecap="round"/>
<path d="M318.89 551.295L299.458 566.666C264.623 594.23 213.387 569.408 213.387 524.978L286.898 489.375C286.898 489.375 286.898 489.376 286.898 489.396C286.961 490.435 289.39 532.871 318.89 551.295Z" fill="#FE5244"/>
<g opacity="0.2">
<g opacity="0.2">
<g opacity="0.2">
<path opacity="0.2" d="M222.563 520.554V555.055C222.272 554.64 222.003 554.224 221.733 553.809V520.948L222.563 520.554Z" fill="white"/>
</g>
<g opacity="0.2">
<path opacity="0.2" d="M231.324 516.316V564.859C231.054 564.61 230.763 564.36 230.493 564.111V516.711L231.324 516.316Z" fill="white"/>
</g>
<g opacity="0.2">
<path opacity="0.2" d="M240.064 512.079V571.09C239.794 570.924 239.503 570.779 239.233 570.613V512.473L240.064 512.079Z" fill="white"/>
</g>
<g opacity="0.2">
<path opacity="0.2" d="M248.824 507.841V575.12C248.555 575.016 248.264 574.933 247.994 574.829V508.257L248.824 507.841Z" fill="white"/>
</g>
<g opacity="0.2">
<path opacity="0.2" d="M257.585 503.604V577.447C257.315 577.405 257.025 577.343 256.755 577.301V504.019L257.585 503.604Z" fill="white"/>
</g>
<g opacity="0.2">
<path opacity="0.2" d="M266.325 499.346V578.236C266.055 578.236 265.765 578.236 265.495 578.215V499.762L266.325 499.346Z" fill="white"/>
</g>
<g opacity="0.2">
<path opacity="0.2" d="M275.086 495.108V577.571C274.816 577.613 274.525 577.654 274.255 577.696V495.524L275.086 495.108Z" fill="white"/>
</g>
<g opacity="0.2">
<path opacity="0.2" d="M283.847 490.871V575.349C283.577 575.452 283.286 575.536 283.016 575.639V491.287L283.847 490.871Z" fill="white"/>
</g>
<g opacity="0.2">
<path opacity="0.2" d="M292.586 515.984V571.339C292.317 571.506 292.026 571.651 291.756 571.796V513.553C291.798 513.699 291.839 513.844 291.901 513.969C291.984 514.239 292.088 514.529 292.171 514.8C292.317 515.194 292.462 515.589 292.586 515.984Z" fill="white"/>
</g>
<g opacity="0.2">
<path opacity="0.2" d="M301.347 533.847V565.191L300.517 565.856V532.559C300.787 532.975 301.057 533.411 301.347 533.847Z" fill="white"/>
</g>
<g opacity="0.2">
<path opacity="0.2" d="M310.108 544.441V558.607H309.672L309.278 558.918V543.61C309.547 543.901 309.817 544.171 310.108 544.441Z" fill="white"/>
</g>
</g>
<g opacity="0.2">
<g opacity="0.2">
<path opacity="0.2" d="M283.992 575.287C283.93 575.307 283.888 575.328 283.826 575.349C283.556 575.453 283.265 575.536 282.995 575.64C282.476 575.806 281.957 575.972 281.418 576.138H251.897C251.025 575.889 250.153 575.598 249.281 575.307H283.992V575.287Z" fill="white"/>
</g>
<g opacity="0.2">
<path opacity="0.2" d="M299.645 566.521L299.458 566.666C299.167 566.895 298.877 567.123 298.586 567.352H234.396C234.023 567.082 233.67 566.812 233.317 566.521H299.645Z" fill="white"/>
</g>
<g opacity="0.2">
<path opacity="0.2" d="M310.71 557.776L310.087 558.254V558.607H225.22C224.992 558.337 224.764 558.046 224.556 557.776H310.71Z" fill="white"/>
</g>
<g opacity="0.2">
<path opacity="0.2" d="M316.689 549.841H219.428C219.283 549.571 219.138 549.281 218.992 549.011H315.526C315.9 549.302 316.294 549.571 316.689 549.841Z" fill="white"/>
</g>
<g opacity="0.2">
<path opacity="0.2" d="M306.89 541.076H215.795C215.712 540.806 215.629 540.515 215.546 540.245H306.184C306.392 540.536 306.641 540.806 306.89 541.076Z" fill="white"/>
</g>
<g opacity="0.2">
<path opacity="0.2" d="M300.372 532.331H213.865C213.823 532.061 213.802 531.771 213.761 531.5H299.853C300.039 531.771 300.205 532.041 300.372 532.331Z" fill="white"/>
</g>
<g opacity="0.2">
<path opacity="0.2" d="M295.68 523.566H216.356L218.079 522.735H295.306C295.41 523.005 295.534 523.296 295.68 523.566Z" fill="white"/>
</g>
<g opacity="0.2">
<path opacity="0.2" d="M292.192 514.8H234.438L236.161 513.969H291.922C291.985 514.26 292.088 514.53 292.192 514.8Z" fill="white"/>
</g>
<g opacity="0.2">
<path opacity="0.2" d="M289.618 506.055H252.499L254.222 505.225H289.41C289.493 505.495 289.556 505.765 289.618 506.055Z" fill="white"/>
</g>
<g opacity="0.2">
<path opacity="0.2" d="M287.832 497.29H270.581L272.304 496.459H287.708C287.749 496.729 287.791 496.999 287.832 497.29Z" fill="white"/>
</g>
</g>
</g>
<path d="M286.898 489.396C286.961 490.435 289.369 532.871 318.889 551.316" stroke="white" stroke-width="6" stroke-miterlimit="10"/>
<path d="M375.689 564.775V605.446C362.465 618.885 344.902 611.657 344.902 611.657C338.113 592.09 334.501 576.324 332.57 564.796H375.689V564.775Z" fill="white"/>
<path d="M344.881 611.636C338.092 592.069 334.48 576.304 332.55 564.775H375.668V605.446" stroke="#9A3B82" stroke-width="6" stroke-miterlimit="10" stroke-linecap="round"/>
<path d="M406.683 635.211H345.338C342.473 635.211 340.293 632.656 340.75 629.831L340.854 629.208L341.227 626.965L343.885 610.68C343.885 610.68 362.589 618.22 376.374 604.22C376.374 604.22 380.692 615.354 398.712 623.538C402.947 625.469 404.94 628.336 405.874 630.766C406.019 631.119 406.123 631.472 406.227 631.805C406.787 633.757 406.683 635.211 406.683 635.211Z" fill="#FFCF2D"/>
<path d="M406.227 631.784H345.338C343.822 631.784 342.39 631.119 341.414 629.956C341.206 629.706 341.02 629.457 340.874 629.187L341.248 626.944C341.31 627.795 341.642 628.626 342.224 629.291C343.013 630.205 344.154 630.745 345.358 630.745H405.895C406.019 631.098 406.144 631.451 406.227 631.784Z" fill="white"/>
<path d="M385.882 615.749C379.073 620.609 368.589 619.217 367.883 617.12C367.156 615.042 378.035 613.526 379.467 609.206C380.983 611.096 382.934 613.381 385.882 615.749Z" fill="white"/>
<path d="M330.432 542.176C330.432 517.77 336.868 503.604 336.868 503.604" stroke="#9A3B82" stroke-width="6" stroke-miterlimit="10" stroke-linecap="round"/>
<path d="M271.557 465.675L186.358 485.719C175.563 488.253 167.944 497.891 167.944 508.983C167.944 526.618 186.399 538.188 202.26 530.482L284.698 490.434C286.11 489.749 287.231 488.544 287.791 487.069L296.926 463.618C297.299 462.684 296.51 461.687 295.493 461.832L294.04 462.04C291.736 462.372 289.66 463.639 288.31 465.55L284.594 471.117C283.909 472.135 282.767 472.737 281.542 472.737H272.844C271.079 472.737 269.813 471.013 270.353 469.331L271.557 465.675Z" fill="#FFE6CF"/>
<path d="M270.726 465.882L186.358 485.927C175.563 488.461 167.944 498.099 167.944 509.191C167.944 526.826 186.399 538.395 202.26 530.689L284.698 490.642C286.11 489.956 287.231 488.752 287.791 487.277L296.926 463.826C297.299 462.891 296.51 461.894 295.493 462.04L294.04 462.247C291.736 462.58 289.66 463.847 288.31 465.758L284.594 471.324C283.909 472.342 282.767 472.945 281.542 472.945H272.014C270.249 472.945 268.983 471.221 269.522 469.538L270.726 465.882Z" stroke="white" stroke-width="6" stroke-miterlimit="10"/>
<path d="M274.09 479.592H286.815C288.912 479.592 290.822 478.449 291.839 476.601" stroke="white" stroke-width="5" stroke-miterlimit="10" stroke-linecap="round"/>
<path d="M271.183 487.069H283.909C286.006 487.069 287.916 485.927 288.933 484.078" stroke="white" stroke-width="5" stroke-miterlimit="10" stroke-linecap="round"/>
</svg>
